<?xml version="1.0" encoding="UTF-8"?>
<!DOCTYPE svg PUBLIC "-//W3C//DTD SVG 1.1//EN" "http://www.w3.org/Graphics/SVG/1.1/DTD/svg11.dtd">
<svg xmlns="http://www.w3.org/2000/svg" version="1.1" width="368px" height="132px" style="shape-rendering:geometricPrecision; text-rendering:geometricPrecision; image-rendering:optimizeQuality; fill-rule:evenodd; clip-rule:evenodd" xmlns:xlink="http://www.w3.org/1999/xlink">
<g><path style="opacity:0.004" fill="#f3f6ff" d="M 70.5,13.5 C 70.8966,12.475 71.5632,12.3083 72.5,13C 71.9056,13.4643 71.2389,13.631 70.5,13.5 Z"/></g>
<g><path style="opacity:0.341" fill="#a8bcff" d="M 78.5,16.5 C 75.796,15.2857 73.1293,15.2857 70.5,16.5C 73.1667,12.5 75.8333,12.5 78.5,16.5 Z"/></g>
<g><path style="opacity:0.737" fill="#fefffe" d="M 196.5,14.5 C 198.5,14.5 200.5,14.5 202.5,14.5C 202.5,16.5 202.5,18.5 202.5,20.5C 199.679,20.3159 198.012,21.6493 197.5,24.5C 199.045,25.4519 200.712,25.7852 202.5,25.5C 202.5,27.5 202.5,29.5 202.5,31.5C 200.833,31.5 199.167,31.5 197.5,31.5C 197.5,38.8333 197.5,46.1667 197.5,53.5C 195.167,53.5 192.833,53.5 190.5,53.5C 190.5,46.1667 190.5,38.8333 190.5,31.5C 189.5,31.5 188.5,31.5 187.5,31.5C 187.5,29.5 187.5,27.5 187.5,25.5C 188.5,25.5 189.5,25.5 190.5,25.5C 190.171,20.4866 192.171,16.82 196.5,14.5 Z"/></g>
<g><path style="opacity:0.004" fill="#fdfdff" d="M 84.5,17.5 C 83.7611,17.631 83.0944,17.4643 82.5,17C 83.4368,16.3083 84.1034,16.475 84.5,17.5 Z"/></g>
<g><path style="opacity:0.776" fill="#fefffe" d="M 242.5,52.5 C 241.205,51.5116 239.872,50.5116 238.5,49.5C 232.994,41.495 233.66,33.995 240.5,27C 245.79,23.5923 250.956,23.7589 256,27.5C 256.499,23.8484 256.665,20.1817 256.5,16.5C 258.833,16.5 261.167,16.5 263.5,16.5C 263.5,28.8333 263.5,41.1667 263.5,53.5C 261.167,53.5 258.833,53.5 256.5,53.5C 256.649,52.448 256.483,51.448 256,50.5C 251.93,53.6559 247.43,54.3226 242.5,52.5 Z M 253.5,45.5 C 250.786,47.9715 248.119,47.9715 245.5,45.5C 244.542,45.0472 243.708,44.3805 243,43.5C 240.662,34.1748 244.162,30.3415 253.5,32C 257.376,36.6473 257.376,41.1473 253.5,45.5 Z"/></g>
<g><path style="opacity:0.761" fill="#fefffe" d="M 342.5,25.5 C 345.572,25.1826 348.572,25.5159 351.5,26.5C 350.143,28.1856 348.81,29.8523 347.5,31.5C 344.703,33.795 342.036,36.295 339.5,39C 344.508,43.1581 348.508,47.9915 351.5,53.5C 348.813,53.6641 346.146,53.4974 343.5,53C 341.034,50.5214 338.701,48.0214 336.5,45.5C 336.217,44.7109 335.717,44.0442 335,43.5C 334.502,46.8168 334.335,50.1501 334.5,53.5C 332.167,53.5 329.833,53.5 327.5,53.5C 327.5,41.1667 327.5,28.8333 327.5,16.5C 329.833,16.5 332.167,16.5 334.5,16.5C 334.334,22.8421 334.5,29.1754 335,35.5C 337.717,32.2896 340.217,28.9563 342.5,25.5 Z"/></g>
<g><path style="opacity:0.004" fill="#fefffe" d="M 66.5,18.5 C 65.8333,17.1667 65.8333,17.1667 66.5,18.5 Z"/></g>
<g><path style="opacity:0.004" fill="#fefffe" d="M 84.5,17.5 C 85.8333,18.1667 85.8333,18.1667 84.5,17.5 Z"/></g>
<g><path style="opacity:1" fill="#4170fe" d="M 78.5,16.5 C 79.507,18.522 81.1737,19.8553 83.5,20.5C 90.214,26.8699 97.5473,32.5366 105.5,37.5C 105.833,37.5 106.167,37.5 106.5,37.5C 109.128,41.6631 112.795,44.6631 117.5,46.5C 118.585,48.5869 120.251,49.9202 122.5,50.5C 123.5,52.1667 124.833,53.5 126.5,54.5C 127.833,56.5 127.833,58.5 126.5,60.5C 124.178,61.8021 122.845,63.8021 122.5,66.5C 122.5,67.1667 122.167,67.5 121.5,67.5C 120.094,67.9731 119.427,68.9731 119.5,70.5C 119.167,71.5 118.5,72.1667 117.5,72.5C 115.738,73.2623 114.738,74.5956 114.5,76.5C 112.016,78.8003 110.016,81.4669 108.5,84.5C 105.529,86.4426 103.529,89.1092 102.5,92.5C 99.6769,93.9923 98.0102,96.3257 97.5,99.5C 95.8378,82.6912 94.8378,65.6912 94.5,48.5C 94.5,47.8333 94.1667,47.5 93.5,47.5C 93.5,46.8333 93.1667,46.5 92.5,46.5C 92.5,45.8333 92.1667,45.5 91.5,45.5C 77.6727,44.6689 63.6727,44.1689 49.5,44C 54.082,38.2655 58.4154,32.4322 62.5,26.5C 64.543,25.4206 65.8763,23.754 66.5,21.5C 68.543,20.4206 69.8763,18.754 70.5,16.5C 73.1293,15.2857 75.796,15.2857 78.5,16.5 Z"/></g>
<g><path style="opacity:0.49" fill="#a0b6fe" d="M 78.5,16.5 C 80.8263,17.1447 82.493,18.478 83.5,20.5C 81.1737,19.8553 79.507,18.522 78.5,16.5 Z"/></g>
<g><path style="opacity:0.748" fill="#fefffe" d="M 146.5,18.5 C 148.833,18.5 151.167,18.5 153.5,18.5C 153.5,30.1667 153.5,41.8333 153.5,53.5C 151.167,53.5 148.833,53.5 146.5,53.5C 146.5,41.8333 146.5,30.1667 146.5,18.5 Z"/></g>
<g><path style="opacity:0.58" fill="#acbeff" d="M 70.5,16.5 C 69.8763,18.754 68.543,20.4206 66.5,21.5C 66.5,20.5 66.5,19.5 66.5,18.5C 67.6049,17.3995 68.9382,16.7329 70.5,16.5 Z"/></g>
<g><path style="opacity:0.004" fill="#fefffe" d="M 63.5,22.5 C 62.475,22.1034 62.3083,21.4368 63,20.5C 63.4643,21.0944 63.631,21.7611 63.5,22.5 Z"/></g>
<g><path style="opacity:0.329" fill="#b0c3ff" d="M 66.5,21.5 C 65.8763,23.754 64.543,25.4206 62.5,26.5C 62.8333,25.1667 63.1667,23.8333 63.5,22.5C 64.391,21.8902 65.391,21.5569 66.5,21.5 Z"/></g>
<g><path style="opacity:0.71" fill="#fefffe" d="M 170.5,24.5 C 176.49,24.0988 180.99,26.4321 184,31.5C 184.5,38.8258 184.666,46.1591 184.5,53.5C 182.167,53.5 179.833,53.5 177.5,53.5C 177.666,46.825 177.5,40.1583 177,33.5C 173.667,30.8333 170.333,30.8333 167,33.5C 166.5,40.1583 166.334,46.825 166.5,53.5C 163.833,53.5 161.167,53.5 158.5,53.5C 158.5,44.1667 158.5,34.8333 158.5,25.5C 161.448,25.2229 164.281,25.5562 167,26.5C 168.302,25.9152 169.469,25.2485 170.5,24.5 Z"/></g>
<g><path style="opacity:0.773" fill="#fefffe" d="M 215.5,24.5 C 228.791,24.7508 234.291,31.4175 232,44.5C 225.78,54.3647 217.78,56.0314 208,49.5C 201.436,38.2728 203.936,29.9395 215.5,24.5 Z M 222.5,45.5 C 216.065,48.6061 212.398,46.4395 211.5,39C 212.006,31.9472 215.672,29.6138 222.5,32C 226.481,36.6144 226.481,41.1144 222.5,45.5 Z"/></g>
<g><path style="opacity:0.732" fill="#fefffe" d="M 278.5,24.5 C 290.158,24.4853 295.491,30.1519 294.5,41.5C 287.944,42.81 281.444,42.81 275,41.5C 275.588,44.9145 277.755,46.9145 281.5,47.5C 283.955,47.1062 285.955,45.9396 287.5,44C 289.902,43.1859 292.235,43.3526 294.5,44.5C 288.498,54.4005 280.664,56.0672 271,49.5C 264.432,38.2434 266.932,29.91 278.5,24.5 Z M 280.5,30.5 C 283.455,30.8135 285.788,32.1468 287.5,34.5C 283.5,35.8333 279.5,35.8333 275.5,34.5C 276.707,32.4589 278.374,31.1255 280.5,30.5 Z"/></g>
<g><path style="opacity:0.732" fill="#fefffe" d="M 315.5,33.5 C 312.739,29.9447 309.573,29.6114 306,32.5C 303.865,37.0514 304.032,41.3847 306.5,45.5C 310.188,48.2541 313.521,47.7541 316.5,44C 318.81,43.5034 321.143,43.3367 323.5,43.5C 322.74,47.3608 320.74,50.3608 317.5,52.5C 310.65,54.7076 304.65,53.3743 299.5,48.5C 294.976,40.609 295.976,33.4424 302.5,27C 310.726,22.6925 317.56,24.1925 323,31.5C 323.49,32.7932 323.657,34.1266 323.5,35.5C 320.467,35.8685 317.8,35.2018 315.5,33.5 Z"/></g>
<g><path style="opacity:0.004" fill="#fefffe" d="M 342.5,25.5 C 341.833,24.1667 341.833,24.1667 342.5,25.5 Z"/></g>
<g><path style="opacity:0.063" fill="#9bb2ff" d="M 83.5,20.5 C 88.7975,24.1158 94.1308,27.7824 99.5,31.5C 101.903,33.2361 103.903,35.2361 105.5,37.5C 97.5473,32.5366 90.214,26.8699 83.5,20.5 Z"/></g>
<g><path style="opacity:0.004" fill="#fefffe" d="M 96.5,27.5 C 97.8333,28.1667 97.8333,28.1667 96.5,27.5 Z"/></g>
<g><path style="opacity:0.004" fill="#fefffe" d="M 58.5,29.5 C 57.8333,28.1667 57.8333,28.1667 58.5,29.5 Z"/></g>
<g><path style="opacity:0.004" fill="#fefffe" d="M 347.5,31.5 C 348.833,32.1667 348.833,32.1667 347.5,31.5 Z"/></g>
<g><path style="opacity:0.004" fill="#fefffe" d="M 54.5,34.5 C 53.475,34.1034 53.3083,33.4368 54,32.5C 54.4643,33.0944 54.631,33.7611 54.5,34.5 Z"/></g>
<g><path style="opacity:0.004" fill="#fefffe" d="M 315.5,33.5 C 314.833,34.1667 314.833,34.1667 315.5,33.5 Z"/></g>
<g><path style="opacity:0.004" fill="#fefffe" d="M 233.5,34.5 C 234.833,35.1667 234.833,35.1667 233.5,34.5 Z"/></g>
<g><path style="opacity:0.271" fill="#8db9f3" d="M 62.5,26.5 C 58.4154,32.4322 54.082,38.2655 49.5,44C 63.6727,44.1689 77.6727,44.6689 91.5,45.5C 77.1667,45.5 62.8333,45.5 48.5,45.5C 48.5,44.8333 48.5,44.1667 48.5,43.5C 49.7515,41.9991 50.7515,40.3325 51.5,38.5C 52.9744,37.5637 53.9744,36.2303 54.5,34.5C 56.0627,33.0552 57.396,31.3885 58.5,29.5C 59.6366,28.2112 60.9699,27.2112 62.5,26.5 Z"/></g>
<g><path style="opacity:0.004" fill="#fefffe" d="M 108.5,36.5 C 109.833,37.1667 109.833,37.1667 108.5,36.5 Z"/></g>
<g><path style="opacity:0.004" fill="#f3f5ff" d="M 51.5,38.5 C 50.475,38.1034 50.3083,37.4368 51,36.5C 51.4643,37.0944 51.631,37.7611 51.5,38.5 Z"/></g>
<g><path style="opacity:0.004" fill="#f5f7ff" d="M 111.5,40.5 C 111.897,39.475 112.563,39.3083 113.5,40C 112.906,40.4643 112.239,40.631 111.5,40.5 Z"/></g>
<g><path style="opacity:0.004" fill="#fefffe" d="M 27.5,41.5 C 28.8333,42.1667 28.8333,42.1667 27.5,41.5 Z"/></g>
<g><path style="opacity:0.004" fill="#fefffe" d="M 233.5,42.5 C 234.833,43.1667 234.833,43.1667 233.5,42.5 Z"/></g>
<g><path style="opacity:0.267" fill="#98afff" d="M 106.5,37.5 C 109.187,39.833 112.187,41.833 115.5,43.5C 116.425,44.3569 117.092,45.3569 117.5,46.5C 112.795,44.6631 109.128,41.6631 106.5,37.5 Z"/></g>
<g><path style="opacity:0.432" fill="#83f1db" d="M 48.5,43.5 C 48.5,44.1667 48.5,44.8333 48.5,45.5C 41.1667,45.5 33.8333,45.5 26.5,45.5C 33.4238,43.5367 40.7572,42.8701 48.5,43.5 Z"/></g>
<g><path style="opacity:0.004" fill="#fefffe" d="M 306.5,44.5 C 307.833,45.1667 307.833,45.1667 306.5,44.5 Z"/></g>
<g><path style="opacity:0.004" fill="#fefffe" d="M 22.5,47.5 C 21.475,47.1034 21.3083,46.4368 22,45.5C 22.4643,46.0944 22.631,46.7611 22.5,47.5 Z"/></g>
<g><path style="opacity:0.004" fill="#fefffe" d="M 336.5,45.5 C 335.833,46.1667 335.833,46.1667 336.5,45.5 Z"/></g>
<g><path style="opacity:1" fill="#12e4ba" d="M 26.5,45.5 C 33.8333,45.5 41.1667,45.5 48.5,45.5C 62.8333,45.5 77.1667,45.5 91.5,45.5C 92.1667,45.5 92.5,45.8333 92.5,46.5C 77.8295,46.3334 63.1629,46.5001 48.5,47C 63.0746,47.1754 77.5746,47.6754 92,48.5C 92.3333,65.8333 92.6667,83.1667 93,100.5C 93.4999,82.8365 93.6666,65.1698 93.5,47.5C 94.1667,47.5 94.5,47.8333 94.5,48.5C 94.6666,70.1692 94.5,91.8359 94,113.5C 93.2828,114.044 92.7828,114.711 92.5,115.5C 70.8333,115.5 49.1667,115.5 27.5,115.5C 26.8333,115.5 26.1667,115.5 25.5,115.5C 24.3449,92.906 24.1782,70.2393 25,47.5C 25.7172,46.9558 26.2172,46.2891 26.5,45.5 Z"/></g>
<g><path style="opacity:1" fill="#0eecb5" d="M 92.5,46.5 C 93.1667,46.5 93.5,46.8333 93.5,47.5C 93.6666,65.1698 93.4999,82.8365 93,100.5C 92.6667,83.1667 92.3333,65.8333 92,48.5C 77.5746,47.6754 63.0746,47.1754 48.5,47C 63.1629,46.5001 77.8295,46.3334 92.5,46.5 Z"/></g>
<g><path style="opacity:0.502" fill="#aabfff" d="M 117.5,46.5 C 120.063,46.7313 121.73,48.0646 122.5,50.5C 120.251,49.9202 118.585,48.5869 117.5,46.5 Z"/></g>
<g><path style="opacity:0.004" fill="#fefffe" d="M 299.5,48.5 C 298.833,49.1667 298.833,49.1667 299.5,48.5 Z"/></g>
<g><path style="opacity:0.004" fill="#fefffe" d="M 125.5,49.5 C 126.833,50.1667 126.833,50.1667 125.5,49.5 Z"/></g>
<g><path style="opacity:0.004" fill="#fefffe" d="M 238.5,49.5 C 237.833,50.1667 237.833,50.1667 238.5,49.5 Z"/></g>
<g><path style="opacity:0.165" fill="#8df2dd" d="M 26.5,45.5 C 26.2172,46.2891 25.7172,46.9558 25,47.5C 24.1782,70.2393 24.3449,92.906 25.5,115.5C 24.2502,115.423 23.4169,114.756 23,113.5C 22.5,91.5025 22.3334,69.5025 22.5,47.5C 23.6049,46.3995 24.9382,45.7329 26.5,45.5 Z"/></g>
<g><path style="opacity:0.122" fill="#a3b9ff" d="M 122.5,50.5 C 124.632,50.5544 125.965,51.5544 126.5,53.5C 126.5,53.8333 126.5,54.1667 126.5,54.5C 124.833,53.5 123.5,52.1667 122.5,50.5 Z"/></g>
<g><path style="opacity:0.004" fill="#fefffe" d="M 225.5,52.5 C 226.833,53.1667 226.833,53.1667 225.5,52.5 Z"/></g>
<g><path style="opacity:0.004" fill="#fefffe" d="M 242.5,52.5 C 241.833,53.1667 241.833,53.1667 242.5,52.5 Z"/></g>
<g><path style="opacity:0.004" fill="#fefffe" d="M 317.5,52.5 C 318.833,53.1667 318.833,53.1667 317.5,52.5 Z"/></g>
<g><path style="opacity:0.067" fill="#e5ebff" d="M 126.5,53.5 C 127.725,54.1522 128.392,55.3189 128.5,57C 128.693,59.0081 128.026,60.5081 126.5,61.5C 126.5,61.1667 126.5,60.8333 126.5,60.5C 127.833,58.5 127.833,56.5 126.5,54.5C 126.5,54.1667 126.5,53.8333 126.5,53.5 Z"/></g>
<g><path style="opacity:0.004" fill="#fefffe" d="M 126.5,63.5 C 127.833,64.1667 127.833,64.1667 126.5,63.5 Z"/></g>
<g><path style="opacity:0.075" fill="#aabeff" d="M 126.5,60.5 C 126.5,60.8333 126.5,61.1667 126.5,61.5C 125.855,63.8263 124.522,65.493 122.5,66.5C 122.845,63.8021 124.178,61.8021 126.5,60.5 Z"/></g>
<g><path style="opacity:0.865" fill="#fefffe" d="M 231.5,64.5 C 233.833,64.5 236.167,64.5 238.5,64.5C 238.5,80.1667 238.5,95.8333 238.5,111.5C 235.606,111.958 233.106,111.291 231,109.5C 219.324,116.252 210.658,113.585 205,101.5C 202.932,92.7099 205.099,85.2099 211.5,79C 218.399,75.25 224.899,75.75 231,80.5C 231.499,75.1771 231.666,69.8437 231.5,64.5 Z M 219.5,82.5 C 227.37,82.8713 231.37,87.038 231.5,95C 230.458,106.421 224.958,109.588 215,104.5C 211.263,98.5463 210.93,92.5463 214,86.5C 215.5,84.5313 217.333,83.198 219.5,82.5 Z"/></g>
<g><path style="opacity:0.004" fill="#fcfdfe" d="M 122.5,68.5 C 123.833,69.1667 123.833,69.1667 122.5,68.5 Z"/></g>
<g><path style="opacity:0.004" fill="#e3e9ff" d="M 121.5,67.5 C 121.328,68.4916 121.662,69.1583 122.5,69.5C 122.631,70.2389 122.464,70.9056 122,71.5C 121.329,70.7476 120.496,70.4142 119.5,70.5C 119.427,68.9731 120.094,67.9731 121.5,67.5 Z"/></g>
<g><path style="opacity:0.004" fill="#fdfdff" d="M 117.5,74.5 C 119.892,73.6322 120.059,74.2988 118,76.5C 117.536,75.9056 117.369,75.2389 117.5,74.5 Z"/></g>
<g><path style="opacity:0.18" fill="#aabdff" d="M 117.5,72.5 C 117.5,73.1667 117.5,73.8333 117.5,74.5C 116.778,75.5511 115.778,76.2178 114.5,76.5C 114.738,74.5956 115.738,73.2623 117.5,72.5 Z"/></g>
<g><path style="opacity:0.87" fill="#fefffe" d="M 255.5,76.5 C 275.826,75.436 282.993,84.7693 277,104.5C 271.06,112.615 263.227,115.115 253.5,112C 246.602,108.551 243.269,102.885 243.5,95C 243.817,86.2277 247.817,80.061 255.5,76.5 Z M 257.5,82.5 C 268.736,81.9194 273.236,87.2528 271,98.5C 268.499,106.723 263.332,109.056 255.5,105.5C 251.687,100.85 250.52,95.5164 252,89.5C 252.967,86.3794 254.8,84.046 257.5,82.5 Z"/></g>
<g><path style="opacity:0.865" fill="#fefffe" d="M 294.5,76.5 C 300.402,75.962 306.068,76.7953 311.5,79C 314.373,81.913 315.706,85.413 315.5,89.5C 313.076,89.8076 310.743,89.4742 308.5,88.5C 306.335,82.8773 302.335,81.0439 296.5,83C 289.095,90.4057 288.762,98.0723 295.5,106C 302.686,108.607 307.019,106.107 308.5,98.5C 310.833,98.5 313.167,98.5 315.5,98.5C 315.622,105.092 312.622,109.592 306.5,112C 288.001,114.162 280.501,105.996 284,87.5C 286.046,82.29 289.546,78.6233 294.5,76.5 Z"/></g>
<g><path style="opacity:0.852" fill="#fefffe" d="M 328.5,76.5 C 334.402,75.962 340.068,76.7953 345.5,79C 347.782,81.3974 349.116,84.2307 349.5,87.5C 347.143,87.6633 344.81,87.4966 342.5,87C 340.768,83.549 337.934,82.049 334,82.5C 330.451,81.773 328.284,83.1063 327.5,86.5C 328.189,88.3527 329.522,89.5193 331.5,90C 336.604,90.9539 341.604,92.2872 346.5,94C 352.452,101.032 351.452,107.032 343.5,112C 337.51,113.928 331.51,113.928 325.5,112C 321.009,109.524 318.676,105.691 318.5,100.5C 320.924,100.192 323.257,100.526 325.5,101.5C 327.149,105.785 330.315,107.785 335,107.5C 338.865,107.488 341.698,105.821 343.5,102.5C 343.135,101.098 342.301,100.098 341,99.5C 333.929,98.235 327.263,95.9017 321,92.5C 318.395,84.7126 320.895,79.3792 328.5,76.5 Z"/></g>
<g><path style="opacity:0.035" fill="#cfd9ff" d="M 114.5,76.5 C 114.297,78.0443 113.63,79.3777 112.5,80.5C 112.709,81.086 113.043,81.586 113.5,82C 111.548,82.3661 109.882,83.1995 108.5,84.5C 110.016,81.4669 112.016,78.8003 114.5,76.5 Z"/></g>
<g><path style="opacity:0.004" fill="#fcfdfe" d="M 109.5,85.5 C 110.833,86.1667 110.833,86.1667 109.5,85.5 Z"/></g>
<g><path style="opacity:0.004" fill="#fefffe" d="M 108.5,86.5 C 108.833,86.5 109.167,86.5 109.5,86.5C 109.167,89.1667 108.833,89.1667 108.5,86.5 Z"/></g>
<g><path style="opacity:0.278" fill="#bdccff" d="M 108.5,84.5 C 108.5,85.1667 108.5,85.8333 108.5,86.5C 106.5,88.5 104.5,90.5 102.5,92.5C 103.529,89.1092 105.529,86.4426 108.5,84.5 Z"/></g>
<g><path style="opacity:0.004" fill="#fcfdfe" d="M 106.5,89.5 C 107.833,90.1667 107.833,90.1667 106.5,89.5 Z"/></g>
<g><path style="opacity:0.071" fill="#c3d1ff" d="M 102.5,92.5 C 102.611,93.1174 102.944,93.6174 103.5,94C 100.977,95.3597 98.9774,97.193 97.5,99.5C 98.0102,96.3257 99.6769,93.9923 102.5,92.5 Z"/></g>
<g><path style="opacity:1" fill="#e9fcf8" d="M 38.5,96.5 C 48.6943,97.1579 51.0277,101.658 45.5,110C 36.6667,111.833 33.1667,108.333 35,99.5C 36.1451,98.3636 37.3117,97.3636 38.5,96.5 Z"/></g>
<g><path style="opacity:0.004" fill="#fefffe" d="M 100.5,97.5 C 101.833,98.1667 101.833,98.1667 100.5,97.5 Z"/></g>
<g><path style="opacity:1" fill="#31e6bd" d="M 38.5,99.5 C 45.6758,98.9846 47.3425,101.818 43.5,108C 36.9897,107.993 35.323,105.159 38.5,99.5 Z"/></g>
<g><path style="opacity:0.004" fill="#fefffe" d="M 97.5,101.5 C 98.8333,102.167 98.8333,102.167 97.5,101.5 Z"/></g>
<g><path style="opacity:0.102" fill="#87d5e4" d="M 94.5,48.5 C 94.8378,65.6912 95.8378,82.6912 97.5,99.5C 96.7227,104.084 96.2227,108.75 96,113.5C 95.2798,115.056 94.1132,116.056 92.5,116.5C 92.5,116.167 92.5,115.833 92.5,115.5C 92.7828,114.711 93.2828,114.044 94,113.5C 94.5,91.8359 94.6666,70.1692 94.5,48.5 Z"/></g>
<g><path style="opacity:0.004" fill="#fefffe" d="M 21.5,114.5 C 22.8333,115.167 22.8333,115.167 21.5,114.5 Z"/></g>
<g><path style="opacity:0.631" fill="#6defd5" d="M 27.5,115.5 C 49.1667,115.5 70.8333,115.5 92.5,115.5C 92.5,115.833 92.5,116.167 92.5,116.5C 92.5,117.167 92.1667,117.5 91.5,117.5C 70.1667,116.833 48.8333,116.167 27.5,115.5 Z"/></g>
<g><path style="opacity:0.342" fill="#b0f6e7" d="M 25.5,115.5 C 26.1667,115.5 26.8333,115.5 27.5,115.5C 48.8333,116.167 70.1667,116.833 91.5,117.5C 69.8308,117.667 48.1641,117.5 26.5,117C 25.944,116.617 25.6107,116.117 25.5,115.5 Z"/></g>
</svg>
