<?xml version="1.0" encoding="UTF-8"?>
<!DOCTYPE svg PUBLIC "-//W3C//DTD SVG 1.1//EN" "http://www.w3.org/Graphics/SVG/1.1/DTD/svg11.dtd">
<svg xmlns="http://www.w3.org/2000/svg" version="1.1" width="512px" height="512px" style="shape-rendering:geometricPrecision; text-rendering:geometricPrecision; image-rendering:optimizeQuality; fill-rule:evenodd; clip-rule:evenodd" xmlns:xlink="http://www.w3.org/1999/xlink">
<g><path style="opacity:0.004" fill="#fbfcff" d="M 236.5,-0.5 C 245.5,-0.5 254.5,-0.5 263.5,-0.5C 266.02,5.44868 270.353,9.61534 276.5,12C 279.371,14.7028 282.038,17.5361 284.5,20.5C 281.167,18.5 277.833,16.5 274.5,14.5C 268.692,10.7593 262.692,7.25928 256.5,4C 250.995,3.20438 245.662,3.87104 240.5,6C 229.232,15.7378 219.232,26.5712 210.5,38.5C 210.167,38.5 209.833,38.5 209.5,38.5C 215.023,26.8098 222.523,16.4765 232,7.5C 233.765,4.96792 235.265,2.30125 236.5,-0.5 Z"/></g>
<g><path style="opacity:0.008" fill="#d7e3ff" d="M 274.5,14.5 C 275.752,16.0009 276.752,17.6675 277.5,19.5C 275.114,18.6267 273.114,17.1267 271.5,15C 270.552,14.5172 269.552,14.3505 268.5,14.5C 267.021,11.6951 264.688,10.0284 261.5,9.5C 261.389,8.88258 261.056,8.38258 260.5,8C 253.785,7.2891 247.118,7.62243 240.5,9C 239.944,9.38258 239.611,9.88258 239.5,10.5C 236.108,13.5009 232.775,16.5009 229.5,19.5C 222.937,24.587 217.77,30.9203 214,38.5C 209.329,44.0028 204.496,49.3362 199.5,54.5C 203.157,49.1955 206.823,43.8622 210.5,38.5C 219.232,26.5712 229.232,15.7378 240.5,6C 245.662,3.87104 250.995,3.20438 256.5,4C 262.692,7.25928 268.692,10.7593 274.5,14.5 Z"/></g>
<g><path style="opacity:0.063" fill="#bfd3ff" d="M 261.5,9.5 C 254.11,9.23628 246.777,9.56961 239.5,10.5C 239.611,9.88258 239.944,9.38258 240.5,9C 247.118,7.62243 253.785,7.2891 260.5,8C 261.056,8.38258 261.389,8.88258 261.5,9.5 Z"/></g>
<g><path style="opacity:0.096" fill="#b3caff" d="M 261.5,9.5 C 264.688,10.0284 267.021,11.6951 268.5,14.5C 266.745,13.9278 265.078,13.0945 263.5,12C 250.519,9.01658 239.185,11.8499 229.5,20.5C 229.5,20.1667 229.5,19.8333 229.5,19.5C 232.775,16.5009 236.108,13.5009 239.5,10.5C 246.777,9.56961 254.11,9.23628 261.5,9.5 Z"/></g>
<g><path style="opacity:0.337" fill="#97b6ff" d="M 268.5,14.5 C 269.806,15.4674 270.473,16.8007 270.5,18.5C 268.442,17.0669 266.108,16.4003 263.5,16.5C 253.632,10.6827 243.965,11.1827 234.5,18C 232.21,19.7772 230.543,21.9438 229.5,24.5C 228.662,24.8417 228.328,25.5084 228.5,26.5C 226.478,27.507 225.145,29.1737 224.5,31.5C 222.003,32.1293 220.67,33.796 220.5,36.5C 219.833,36.5 219.167,36.5 218.5,36.5C 219.64,34.2198 220.807,31.8864 222,29.5C 225.116,26.8958 227.616,23.8958 229.5,20.5C 239.185,11.8499 250.519,9.01658 263.5,12C 265.078,13.0945 266.745,13.9278 268.5,14.5 Z"/></g>
<g><path style="opacity:0.549" fill="#709cff" d="M 263.5,16.5 C 261.5,16.1667 259.5,15.8333 257.5,15.5C 253.019,14.3516 248.352,14.1849 243.5,15C 240.975,15.4238 238.975,16.5905 237.5,18.5C 234.569,20.0908 231.902,22.0908 229.5,24.5C 230.543,21.9438 232.21,19.7772 234.5,18C 243.965,11.1827 253.632,10.6827 263.5,16.5 Z"/></g>
<g><path style="opacity:0.902" fill="#4681ff" d="M 257.5,15.5 C 250.573,14.9642 243.906,15.9642 237.5,18.5C 238.975,16.5905 240.975,15.4238 243.5,15C 248.352,14.1849 253.019,14.3516 257.5,15.5 Z"/></g>
<g><path style="opacity:0.999" fill="#2d71ff" d="M 257.5,15.5 C 259.5,15.8333 261.5,16.1667 263.5,16.5C 265.629,18.9501 268.296,20.6167 271.5,21.5C 272.585,23.5869 274.251,24.9202 276.5,25.5C 278.717,28.0303 281.384,30.0303 284.5,31.5C 284.973,32.9063 285.973,33.573 287.5,33.5C 288.911,35.914 290.911,37.5806 293.5,38.5C 296.208,41.2085 299.208,43.5419 302.5,45.5C 305.472,49.9729 309.472,53.1396 314.5,55C 317.467,58.8072 321.133,61.6406 325.5,63.5C 329.258,67.5922 333.591,70.9255 338.5,73.5C 339.262,75.2624 340.596,76.2624 342.5,76.5C 343.262,78.2624 344.596,79.2624 346.5,79.5C 347.585,81.5869 349.251,82.9202 351.5,83.5C 352.262,85.2624 353.596,86.2624 355.5,86.5C 356.028,87.7206 356.695,88.8873 357.5,90C 362.926,93.6524 368.259,97.4857 373.5,101.5C 374.585,103.587 376.251,104.92 378.5,105.5C 378.973,106.906 379.973,107.573 381.5,107.5C 383.902,109.909 386.569,111.909 389.5,113.5C 390.694,114.272 391.694,115.272 392.5,116.5C 392.973,117.906 393.973,118.573 395.5,118.5C 396.605,119.6 397.938,120.267 399.5,120.5C 400.585,122.587 402.251,123.92 404.5,124.5C 405.911,126.914 407.911,128.581 410.5,129.5C 419.571,137.545 429.238,144.878 439.5,151.5C 439.908,152.643 440.575,153.643 441.5,154.5C 444.869,156.884 448.203,159.217 451.5,161.5C 451.973,162.906 452.973,163.573 454.5,163.5C 457.417,166.641 460.75,169.308 464.5,171.5C 464.973,172.906 465.973,173.573 467.5,173.5C 468.402,175.341 469.736,176.674 471.5,177.5C 472.585,179.587 474.251,180.92 476.5,181.5C 481.476,185.47 486.476,189.47 491.5,193.5C 492.811,196.811 495.145,199.145 498.5,200.5C 498.755,202.967 499.755,204.967 501.5,206.5C 502.338,206.842 502.672,207.508 502.5,208.5C 502.365,214.181 502.032,219.848 501.5,225.5C 500.326,226.514 499.66,227.847 499.5,229.5C 499.5,229.833 499.5,230.167 499.5,230.5C 494.872,235.063 491.205,240.396 488.5,246.5C 486.983,246.511 485.816,247.177 485,248.5C 481.918,252.734 479.084,257.067 476.5,261.5C 474.554,262.035 473.554,263.368 473.5,265.5C 472.512,266.795 471.512,268.128 470.5,269.5C 467.027,271.637 464.694,274.637 463.5,278.5C 460.22,281.043 457.387,284.043 455,287.5C 454.209,288.745 453.709,290.078 453.5,291.5C 451.554,292.035 450.554,293.368 450.5,295.5C 425.463,326.549 401.129,358.215 377.5,390.5C 373.01,394.326 369.677,398.993 367.5,404.5C 366.833,404.833 366.167,405.167 365.5,405.5C 362.833,405.167 360.167,404.833 357.5,404.5C 358.226,393.45 359.226,382.45 360.5,371.5C 359.937,355.161 359.271,338.827 358.5,322.5C 359.607,315.524 360.607,308.524 361.5,301.5C 361.393,298.433 360.893,295.433 360,292.5C 359.76,277.32 359.26,262.154 358.5,247C 359.983,240.403 360.983,233.736 361.5,227C 360.833,221 360.167,215 359.5,209C 361.2,198.895 361.7,188.728 361,178.5C 354.213,166.838 344.713,158.005 332.5,152C 329.5,151.667 326.5,151.333 323.5,151C 263.843,149.624 204.177,149.124 144.5,149.5C 143.542,149.047 142.708,148.381 142,147.5C 141.398,144.779 141.565,142.113 142.5,139.5C 143.167,138.167 143.833,136.833 144.5,135.5C 144.833,134.5 145.5,133.833 146.5,133.5C 147.906,133.027 148.573,132.027 148.5,130.5C 150.262,129.738 151.262,128.404 151.5,126.5C 153.587,125.415 154.92,123.749 155.5,121.5C 158.771,118.999 161.604,115.999 164,112.5C 164.483,111.552 164.649,110.552 164.5,109.5C 166.012,107.404 167.678,105.404 169.5,103.5C 173.579,98.8623 177.746,94.1956 182,89.5C 183.445,86.9096 184.612,84.243 185.5,81.5C 190.439,76.3878 195.272,71.0544 200,65.5C 200.483,64.552 200.649,63.552 200.5,62.5C 204.784,59.2476 208.118,55.2476 210.5,50.5C 212.14,47.8508 213.807,45.1841 215.5,42.5C 217.156,40.5398 218.823,38.5398 220.5,36.5C 221.833,35.1667 223.167,33.8333 224.5,32.5C 226.738,31.1473 228.071,29.1473 228.5,26.5C 232.12,24.5472 235.12,21.8805 237.5,18.5C 243.906,15.9642 250.573,14.9642 257.5,15.5 Z"/></g>
<g><path style="opacity:0.514" fill="#7aa3ff" d="M 263.5,16.5 C 266.108,16.4003 268.442,17.0669 270.5,18.5C 271.306,19.7281 272.306,20.7281 273.5,21.5C 272.833,21.5 272.167,21.5 271.5,21.5C 268.296,20.6167 265.629,18.9501 263.5,16.5 Z"/></g>
<g><path style="opacity:0.004" fill="#cfddff" d="M 277.5,19.5 C 281.397,21.1212 285.064,23.2879 288.5,26C 290.706,28.0367 292.706,30.2034 294.5,32.5C 290.914,29.4286 286.914,26.9286 282.5,25C 281.238,22.724 279.571,20.8907 277.5,19.5 Z"/></g>
<g><path style="opacity:0.894" fill="#4d85ff" d="M 237.5,18.5 C 235.12,21.8805 232.12,24.5472 228.5,26.5C 228.328,25.5084 228.662,24.8417 229.5,24.5C 231.902,22.0908 234.569,20.0908 237.5,18.5 Z"/></g>
<g><path style="opacity:0.153" fill="#92b3ff" d="M 270.5,18.5 C 275.661,19.8839 279.328,22.8839 281.5,27.5C 279.833,26.8333 278.167,26.1667 276.5,25.5C 275.5,24.1667 274.5,22.8333 273.5,21.5C 272.306,20.7281 271.306,19.7281 270.5,18.5 Z"/></g>
<g><path style="opacity:0.698" fill="#6393ff" d="M 271.5,21.5 C 272.167,21.5 272.833,21.5 273.5,21.5C 274.5,22.8333 275.5,24.1667 276.5,25.5C 274.251,24.9202 272.585,23.5869 271.5,21.5 Z"/></g>
<g><path style="opacity:0.137" fill="#a2beff" d="M 268.5,14.5 C 269.552,14.3505 270.552,14.5172 271.5,15C 273.114,17.1267 275.114,18.6267 277.5,19.5C 279.571,20.8907 281.238,22.724 282.5,25C 286.914,26.9286 290.914,29.4286 294.5,32.5C 295.262,34.2624 296.596,35.2624 298.5,35.5C 299.911,37.914 301.911,39.5806 304.5,40.5C 313.126,47.1239 321.459,54.1239 329.5,61.5C 325.266,60.2854 321.933,57.7854 319.5,54C 318.207,53.51 316.873,53.3433 315.5,53.5C 312.982,50.4836 310.316,47.6502 307.5,45C 306.255,44.2086 304.922,43.7086 303.5,43.5C 302.089,41.086 300.089,39.4194 297.5,38.5C 296.833,38.5 296.167,38.5 295.5,38.5C 294.089,36.086 292.089,34.4194 289.5,33.5C 288.833,33.5 288.167,33.5 287.5,33.5C 287.027,32.0937 286.027,31.427 284.5,31.5C 283.5,30.1667 282.5,28.8333 281.5,27.5C 279.328,22.8839 275.661,19.8839 270.5,18.5C 270.473,16.8007 269.806,15.4674 268.5,14.5 Z"/></g>
<g><path style="opacity:0.651" fill="#6795ff" d="M 276.5,25.5 C 278.167,26.1667 279.833,26.8333 281.5,27.5C 282.5,28.8333 283.5,30.1667 284.5,31.5C 281.384,30.0303 278.717,28.0303 276.5,25.5 Z"/></g>
<g><path style="opacity:0.929" fill="#4b82ff" d="M 228.5,26.5 C 228.071,29.1473 226.738,31.1473 224.5,32.5C 224.5,32.1667 224.5,31.8333 224.5,31.5C 225.145,29.1737 226.478,27.507 228.5,26.5 Z"/></g>
<g><path style="opacity:0.667" fill="#6b98ff" d="M 284.5,31.5 C 286.027,31.427 287.027,32.0937 287.5,33.5C 285.973,33.573 284.973,32.9063 284.5,31.5 Z"/></g>
<g><path style="opacity:0.729" fill="#6493ff" d="M 224.5,31.5 C 224.5,31.8333 224.5,32.1667 224.5,32.5C 223.167,33.8333 221.833,35.1667 220.5,36.5C 220.67,33.796 222.003,32.1293 224.5,31.5 Z"/></g>
<g><path style="opacity:0.392" fill="#8aadff" d="M 289.5,33.5 C 292.089,34.4194 294.089,36.086 295.5,38.5C 294.833,38.5 294.167,38.5 293.5,38.5C 292.167,36.8333 290.833,35.1667 289.5,33.5 Z"/></g>
<g><path style="opacity:0.69" fill="#6796ff" d="M 287.5,33.5 C 288.167,33.5 288.833,33.5 289.5,33.5C 290.833,35.1667 292.167,36.8333 293.5,38.5C 290.911,37.5806 288.911,35.914 287.5,33.5 Z"/></g>
<g><path style="opacity:0.718" fill="#6f9bff" d="M 218.5,36.5 C 219.167,36.5 219.833,36.5 220.5,36.5C 218.823,38.5398 217.156,40.5398 215.5,42.5C 215.975,40.2163 216.975,38.2163 218.5,36.5 Z"/></g>
<g><path style="opacity:0.004" fill="#c9d9ff" d="M 298.5,35.5 C 301.089,36.4194 303.089,38.086 304.5,40.5C 301.911,39.5806 299.911,37.914 298.5,35.5 Z"/></g>
<g><path style="opacity:0.365" fill="#88acff" d="M 297.5,38.5 C 300.089,39.4194 302.089,41.086 303.5,43.5C 300.31,43.3129 298.31,41.6462 297.5,38.5 Z"/></g>
<g><path style="opacity:0.004" fill="#e7eeff" d="M 274.5,14.5 C 277.833,16.5 281.167,18.5 284.5,20.5C 288.139,23.2077 291.473,26.3744 294.5,30C 300.033,33.2617 305.366,36.7617 310.5,40.5C 311.75,42.1541 313.084,43.8207 314.5,45.5C 311.167,43.8333 307.833,42.1667 304.5,40.5C 303.089,38.086 301.089,36.4194 298.5,35.5C 296.596,35.2624 295.262,34.2624 294.5,32.5C 292.706,30.2034 290.706,28.0367 288.5,26C 285.064,23.2879 281.397,21.1212 277.5,19.5C 276.752,17.6675 275.752,16.0009 274.5,14.5 Z"/></g>
<g><path style="opacity:0.427" fill="#9dbaff" d="M 218.5,36.5 C 216.975,38.2163 215.975,40.2163 215.5,42.5C 211.426,45.2452 208.426,48.9119 206.5,53.5C 206.167,54.1667 205.833,54.8333 205.5,55.5C 203.284,56.2026 201.451,57.5359 200,59.5C 198.644,62.3289 197.144,64.9955 195.5,67.5C 194.833,67.5 194.167,67.5 193.5,67.5C 195.478,64.6667 197.311,61.6667 199,58.5C 205.386,52.0495 211.053,45.0495 216,37.5C 216.671,36.7476 217.504,36.4142 218.5,36.5 Z"/></g>
<g><path style="opacity:0.373" fill="#7ba3ff" d="M 293.5,38.5 C 294.167,38.5 294.833,38.5 295.5,38.5C 296.167,38.5 296.833,38.5 297.5,38.5C 298.31,41.6462 300.31,43.3129 303.5,43.5C 304.922,43.7086 306.255,44.2086 307.5,45C 310.316,47.6502 312.982,50.4836 315.5,53.5C 313.628,52.4886 311.628,51.6552 309.5,51C 307.559,48.5464 305.225,46.713 302.5,45.5C 299.208,43.5419 296.208,41.2085 293.5,38.5 Z"/></g>
<g><path style="opacity:0.004" fill="#f6f8ff" d="M 310.5,40.5 C 320.105,47.1064 329.105,54.4397 337.5,62.5C 336.833,62.5 336.167,62.5 335.5,62.5C 328.205,57.2056 321.205,51.5389 314.5,45.5C 313.084,43.8207 311.75,42.1541 310.5,40.5 Z"/></g>
<g><path style="opacity:0.694" fill="#709cff" d="M 215.5,42.5 C 213.807,45.1841 212.14,47.8508 210.5,50.5C 209.167,51.5 207.833,52.5 206.5,53.5C 208.426,48.9119 211.426,45.2452 215.5,42.5 Z"/></g>
<g><path style="opacity:0.886" fill="#4d84ff" d="M 210.5,50.5 C 208.118,55.2476 204.784,59.2476 200.5,62.5C 201.754,59.9066 203.42,57.5732 205.5,55.5C 205.833,54.8333 206.167,54.1667 206.5,53.5C 207.833,52.5 209.167,51.5 210.5,50.5 Z"/></g>
<g><path style="opacity:0.008" fill="#cfddff" d="M 199.5,54.5 C 195.143,62.5504 189.809,69.8837 183.5,76.5C 187.646,70.2236 191.813,63.8903 196,57.5C 197.039,56.2899 198.206,55.2899 199.5,54.5 Z"/></g>
<g><path style="opacity:0.584" fill="#7ea5ff" d="M 205.5,55.5 C 203.42,57.5732 201.754,59.9066 200.5,62.5C 199.194,64.4727 197.527,66.1394 195.5,67.5C 197.144,64.9955 198.644,62.3289 200,59.5C 201.451,57.5359 203.284,56.2026 205.5,55.5 Z"/></g>
<g><path style="opacity:0.78" fill="#5d90ff" d="M 302.5,45.5 C 305.225,46.713 307.559,48.5464 309.5,51C 311.628,51.6552 313.628,52.4886 315.5,53.5C 318.833,56.8333 322.167,60.1667 325.5,63.5C 321.133,61.6406 317.467,58.8072 314.5,55C 309.472,53.1396 305.472,49.9729 302.5,45.5 Z"/></g>
<g><path style="opacity:0.004" fill="#e7edff" d="M 209.5,38.5 C 209.833,38.5 210.167,38.5 210.5,38.5C 206.823,43.8622 203.157,49.1955 199.5,54.5C 198.206,55.2899 197.039,56.2899 196,57.5C 191.813,63.8903 187.646,70.2236 183.5,76.5C 179.408,80.2577 176.074,84.591 173.5,89.5C 169.231,94.2713 164.731,98.938 160,103.5C 156.839,107.787 154.006,112.12 151.5,116.5C 151.5,115.167 151.5,113.833 151.5,112.5C 154.987,108.858 157.987,104.858 160.5,100.5C 163.438,98.066 166.271,95.3993 169,92.5C 176.509,82.1373 184.009,71.8039 191.5,61.5C 196.767,53.2358 202.767,45.5691 209.5,38.5 Z"/></g>
<g><path style="opacity:0.161" fill="#90b2ff" d="M 315.5,53.5 C 316.873,53.3433 318.207,53.51 319.5,54C 321.933,57.7854 325.266,60.2854 329.5,61.5C 333.847,64.8483 337.514,68.8483 340.5,73.5C 339.833,73.5 339.167,73.5 338.5,73.5C 335.362,68.7049 331.029,65.3716 325.5,63.5C 322.167,60.1667 318.833,56.8333 315.5,53.5 Z"/></g>
<g><path style="opacity:0.004" fill="#c8d9ff" d="M 304.5,40.5 C 307.833,42.1667 311.167,43.8333 314.5,45.5C 321.205,51.5389 328.205,57.2056 335.5,62.5C 344.563,70.2357 353.896,77.569 363.5,84.5C 363.833,85.1667 364.167,85.8333 364.5,86.5C 363.167,86.1667 361.833,85.8333 360.5,85.5C 358.833,84.8333 357.167,84.1667 355.5,83.5C 354.883,81.7708 353.883,80.2708 352.5,79C 346.131,74.4765 340.131,69.4765 334.5,64C 332.922,62.9055 331.255,62.0722 329.5,61.5C 321.459,54.1239 313.126,47.1239 304.5,40.5 Z"/></g>
<g><path style="opacity:0.729" fill="#6896ff" d="M 325.5,63.5 C 331.029,65.3716 335.362,68.7049 338.5,73.5C 333.591,70.9255 329.258,67.5922 325.5,63.5 Z"/></g>
<g><path style="opacity:0.8" fill="#5d8fff" d="M 200.5,62.5 C 200.649,63.552 200.483,64.552 200,65.5C 195.272,71.0544 190.439,76.3878 185.5,81.5C 188.065,76.2712 191.398,71.6046 195.5,67.5C 197.527,66.1394 199.194,64.4727 200.5,62.5 Z"/></g>
<g><path style="opacity:0.004" fill="#e6eeff" d="M 335.5,62.5 C 336.167,62.5 336.833,62.5 337.5,62.5C 343.063,66.7696 348.73,70.7696 354.5,74.5C 357.5,77.8333 360.5,81.1667 363.5,84.5C 353.896,77.569 344.563,70.2357 335.5,62.5 Z"/></g>
<g><path style="opacity:0.004" fill="#fafcff" d="M 191.5,61.5 C 184.009,71.8039 176.509,82.1373 169,92.5C 166.271,95.3993 163.438,98.066 160.5,100.5C 162.388,96.3944 164.554,92.3944 167,88.5C 174.42,81.0842 181.087,73.0842 187,64.5C 188.129,62.8588 189.629,61.8588 191.5,61.5 Z"/></g>
<g><path style="opacity:0.655" fill="#6594ff" d="M 338.5,73.5 C 339.167,73.5 339.833,73.5 340.5,73.5C 341.167,74.5 341.833,75.5 342.5,76.5C 340.596,76.2624 339.262,75.2624 338.5,73.5 Z"/></g>
<g><path style="opacity:0.255" fill="#a0bcff" d="M 329.5,61.5 C 331.255,62.0722 332.922,62.9055 334.5,64C 340.131,69.4765 346.131,74.4765 352.5,79C 353.883,80.2708 354.883,81.7708 355.5,83.5C 354.833,83.5 354.167,83.5 353.5,83.5C 352.415,81.4131 350.749,80.0798 348.5,79.5C 347.833,79.5 347.167,79.5 346.5,79.5C 345.738,77.7376 344.404,76.7376 342.5,76.5C 341.833,75.5 341.167,74.5 340.5,73.5C 337.514,68.8483 333.847,64.8483 329.5,61.5 Z"/></g>
<g><path style="opacity:0.663" fill="#6896ff" d="M 342.5,76.5 C 344.404,76.7376 345.738,77.7376 346.5,79.5C 344.596,79.2624 343.262,78.2624 342.5,76.5 Z"/></g>
<g><path style="opacity:0.478" fill="#92b2ff" d="M 193.5,67.5 C 194.167,67.5 194.833,67.5 195.5,67.5C 191.398,71.6046 188.065,76.2712 185.5,81.5C 182.925,84.319 180.592,87.319 178.5,90.5C 182.327,82.0183 187.327,74.3516 193.5,67.5 Z"/></g>
<g><path style="opacity:0.118" fill="#c0d2ff" d="M 229.5,19.5 C 229.5,19.8333 229.5,20.1667 229.5,20.5C 227.616,23.8958 225.116,26.8958 222,29.5C 220.807,31.8864 219.64,34.2198 218.5,36.5C 217.504,36.4142 216.671,36.7476 216,37.5C 211.053,45.0495 205.386,52.0495 199,58.5C 197.311,61.6667 195.478,64.6667 193.5,67.5C 187.327,74.3516 182.327,82.0183 178.5,90.5C 175.167,91.8333 172.833,94.1667 171.5,97.5C 171.167,97.5 170.833,97.5 170.5,97.5C 170.957,94.5944 171.957,91.9278 173.5,89.5C 176.074,84.591 179.408,80.2577 183.5,76.5C 189.809,69.8837 195.143,62.5504 199.5,54.5C 204.496,49.3362 209.329,44.0028 214,38.5C 217.77,30.9203 222.937,24.587 229.5,19.5 Z"/></g>
<g><path style="opacity:0.4" fill="#89acff" d="M 348.5,79.5 C 350.749,80.0798 352.415,81.4131 353.5,83.5C 352.833,83.5 352.167,83.5 351.5,83.5C 350.5,82.1667 349.5,80.8333 348.5,79.5 Z"/></g>
<g><path style="opacity:0.678" fill="#6795ff" d="M 346.5,79.5 C 347.167,79.5 347.833,79.5 348.5,79.5C 349.5,80.8333 350.5,82.1667 351.5,83.5C 349.251,82.9202 347.585,81.5869 346.5,79.5 Z"/></g>
<g><path style="opacity:0.639" fill="#6795ff" d="M 351.5,83.5 C 352.167,83.5 352.833,83.5 353.5,83.5C 354.167,84.5 354.833,85.5 355.5,86.5C 353.596,86.2624 352.262,85.2624 351.5,83.5 Z"/></g>
<g><path style="opacity:0.004" fill="#cddbff" d="M 364.5,86.5 C 368.363,87.6936 371.363,90.027 373.5,93.5C 369.637,92.3064 366.637,89.973 364.5,86.5 Z"/></g>
<g><path style="opacity:0.922" fill="#4c83ff" d="M 185.5,81.5 C 184.612,84.243 183.445,86.9096 182,89.5C 177.746,94.1956 173.579,98.8623 169.5,103.5C 172.68,99.2988 175.68,94.9655 178.5,90.5C 180.592,87.319 182.925,84.319 185.5,81.5 Z"/></g>
<g><path style="opacity:0.671" fill="#5d8fff" d="M 355.5,86.5 C 362.697,90.0938 368.697,95.0938 373.5,101.5C 368.259,97.4857 362.926,93.6524 357.5,90C 356.695,88.8873 356.028,87.7206 355.5,86.5 Z"/></g>
<g><path style="opacity:0.416" fill="#87acff" d="M 353.5,83.5 C 354.167,83.5 354.833,83.5 355.5,83.5C 357.167,84.1667 358.833,84.8333 360.5,85.5C 364.89,91.0617 370.223,95.7284 376.5,99.5C 377.441,101.772 378.774,103.772 380.5,105.5C 379.833,105.5 379.167,105.5 378.5,105.5C 377.415,103.413 375.749,102.08 373.5,101.5C 368.697,95.0938 362.697,90.0938 355.5,86.5C 354.833,85.5 354.167,84.5 353.5,83.5 Z"/></g>
<g><path style="opacity:0.004" fill="#cddbff" d="M 373.5,93.5 C 374.552,93.3505 375.552,93.5172 376.5,94C 378.928,97.0976 381.928,99.431 385.5,101C 388.922,103.192 391.588,106.025 393.5,109.5C 390.809,107.377 387.809,105.711 384.5,104.5C 383.694,103.272 382.694,102.272 381.5,101.5C 378.833,98.8333 376.167,96.1667 373.5,93.5 Z"/></g>
<g><path style="opacity:0.078" fill="#a5c0ff" d="M 360.5,85.5 C 361.833,85.8333 363.167,86.1667 364.5,86.5C 366.637,89.973 369.637,92.3064 373.5,93.5C 376.167,96.1667 378.833,98.8333 381.5,101.5C 379.833,100.833 378.167,100.167 376.5,99.5C 370.223,95.7284 364.89,91.0617 360.5,85.5 Z"/></g>
<g><path style="opacity:0.004" fill="#f6f9ff" d="M 354.5,74.5 C 364.37,78.851 372.703,85.351 379.5,94C 393.882,103.22 407.215,113.72 419.5,125.5C 418.5,125.5 417.5,125.5 416.5,125.5C 409.329,120.412 402.329,115.078 395.5,109.5C 394.833,109.5 394.167,109.5 393.5,109.5C 391.588,106.025 388.922,103.192 385.5,101C 381.928,99.431 378.928,97.0976 376.5,94C 375.552,93.5172 374.552,93.3505 373.5,93.5C 371.363,90.027 368.363,87.6936 364.5,86.5C 364.167,85.8333 363.833,85.1667 363.5,84.5C 360.5,81.1667 357.5,77.8333 354.5,74.5 Z"/></g>
<g><path style="opacity:0.349" fill="#9ebbff" d="M 170.5,97.5 C 170.833,97.5 171.167,97.5 171.5,97.5C 167.674,102.739 164.008,108.072 160.5,113.5C 159.391,113.557 158.391,113.89 157.5,114.5C 161.457,108.543 165.79,102.877 170.5,97.5 Z"/></g>
<g><path style="opacity:0.784" fill="#4e86ff" d="M 373.5,101.5 C 375.749,102.08 377.415,103.413 378.5,105.5C 376.251,104.92 374.585,103.587 373.5,101.5 Z"/></g>
<g><path style="opacity:0.188" fill="#97b6ff" d="M 376.5,99.5 C 378.167,100.167 379.833,100.833 381.5,101.5C 382.694,102.272 383.694,103.272 384.5,104.5C 385.248,106.332 386.248,107.999 387.5,109.5C 387.167,109.5 386.833,109.5 386.5,109.5C 384.754,107.748 382.754,106.415 380.5,105.5C 378.774,103.772 377.441,101.772 376.5,99.5 Z"/></g>
<g><path style="opacity:0.824" fill="#4e85ff" d="M 378.5,105.5 C 379.167,105.5 379.833,105.5 380.5,105.5C 380.833,106.167 381.167,106.833 381.5,107.5C 379.973,107.573 378.973,106.906 378.5,105.5 Z"/></g>
<g><path style="opacity:0.007" fill="#c9d8ff" d="M 173.5,89.5 C 171.957,91.9278 170.957,94.5944 170.5,97.5C 165.79,102.877 161.457,108.543 157.5,114.5C 156.833,114.5 156.5,114.833 156.5,115.5C 155.504,115.414 154.671,115.748 154,116.5C 148.402,124.707 142.569,132.707 136.5,140.5C 136.167,140.5 135.833,140.5 135.5,140.5C 136.429,137.588 137.762,134.921 139.5,132.5C 144.471,127.891 148.471,122.557 151.5,116.5C 154.006,112.12 156.839,107.787 160,103.5C 164.731,98.938 169.231,94.2713 173.5,89.5 Z"/></g>
<g><path style="opacity:0.612" fill="#6896ff" d="M 380.5,105.5 C 382.754,106.415 384.754,107.748 386.5,109.5C 387.5,110.833 388.5,112.167 389.5,113.5C 386.569,111.909 383.902,109.909 381.5,107.5C 381.167,106.833 380.833,106.167 380.5,105.5 Z"/></g>
<g><path style="opacity:0.447" fill="#77a0ff" d="M 386.5,109.5 C 386.833,109.5 387.167,109.5 387.5,109.5C 390.358,112.086 393.358,114.42 396.5,116.5C 397.5,117.833 398.5,119.167 399.5,120.5C 397.938,120.267 396.605,119.6 395.5,118.5C 395.027,117.094 394.027,116.427 392.5,116.5C 391.694,115.272 390.694,114.272 389.5,113.5C 388.5,112.167 387.5,110.833 386.5,109.5 Z"/></g>
<g><path style="opacity:0.004" fill="#c4d6ff" d="M 393.5,109.5 C 394.167,109.5 394.833,109.5 395.5,109.5C 397.5,111.833 399.5,114.167 401.5,116.5C 398.236,114.906 395.569,112.573 393.5,109.5 Z"/></g>
<g><path style="opacity:0.659" fill="#7aa2ff" d="M 178.5,90.5 C 175.68,94.9655 172.68,99.2988 169.5,103.5C 167.678,105.404 166.012,107.404 164.5,109.5C 163.527,111.139 162.194,112.473 160.5,113.5C 164.008,108.072 167.674,102.739 171.5,97.5C 172.833,94.1667 175.167,91.8333 178.5,90.5 Z"/></g>
<g><path style="opacity:0.004" fill="#fafcff" d="M 151.5,112.5 C 151.5,113.833 151.5,115.167 151.5,116.5C 148.471,122.557 144.471,127.891 139.5,132.5C 136.453,134.918 134.12,137.918 132.5,141.5C 128.328,144.337 123.661,146.004 118.5,146.5C 93.661,146.831 68.9944,146.498 44.5,145.5C 69.5517,145.962 94.5517,145.462 119.5,144C 128.639,138.861 135.806,131.694 141,122.5C 144.369,118.963 147.869,115.629 151.5,112.5 Z"/></g>
<g><path style="opacity:0.855" fill="#5288ff" d="M 164.5,109.5 C 164.649,110.552 164.483,111.552 164,112.5C 161.604,115.999 158.771,118.999 155.5,121.5C 156.869,118.648 158.536,115.982 160.5,113.5C 162.194,112.473 163.527,111.139 164.5,109.5 Z"/></g>
<g><path style="opacity:0.439" fill="#87acff" d="M 160.5,113.5 C 158.536,115.982 156.869,118.648 155.5,121.5C 153.065,122.27 151.731,123.937 151.5,126.5C 149.554,127.035 148.554,128.368 148.5,130.5C 147.094,130.973 146.427,131.973 146.5,133.5C 145.5,133.833 144.833,134.5 144.5,135.5C 144.167,135.5 143.833,135.5 143.5,135.5C 147.413,128.581 151.747,121.915 156.5,115.5C 156.5,114.833 156.833,114.5 157.5,114.5C 158.391,113.89 159.391,113.557 160.5,113.5 Z"/></g>
<g><path style="opacity:0.835" fill="#4c84ff" d="M 392.5,116.5 C 394.027,116.427 395.027,117.094 395.5,118.5C 393.973,118.573 392.973,117.906 392.5,116.5 Z"/></g>
<g><path style="opacity:0.388" fill="#91b3ff" d="M 396.5,116.5 C 399.063,116.731 400.73,118.065 401.5,120.5C 400.833,120.5 400.167,120.5 399.5,120.5C 398.5,119.167 397.5,117.833 396.5,116.5 Z"/></g>
<g><path style="opacity:0.157" fill="#a8c2ff" d="M 384.5,104.5 C 387.809,105.711 390.809,107.377 393.5,109.5C 395.569,112.573 398.236,114.906 401.5,116.5C 405.254,120.548 409.587,123.882 414.5,126.5C 414.833,127.167 415.167,127.833 415.5,128.5C 412.5,127.167 409.5,125.833 406.5,124.5C 405.73,122.065 404.063,120.731 401.5,120.5C 400.73,118.065 399.063,116.731 396.5,116.5C 393.358,114.42 390.358,112.086 387.5,109.5C 386.248,107.999 385.248,106.332 384.5,104.5 Z"/></g>
<g><path style="opacity:0.2" fill="#a9c6ff" d="M 156.5,115.5 C 151.747,121.915 147.413,128.581 143.5,135.5C 141.782,137.223 140.449,139.223 139.5,141.5C 137.457,142.579 136.124,144.246 135.5,146.5C 134.833,146.5 134.5,146.833 134.5,147.5C 133.833,147.5 133.5,147.167 133.5,146.5C 133.615,144.053 134.615,142.053 136.5,140.5C 142.569,132.707 148.402,124.707 154,116.5C 154.671,115.748 155.504,115.414 156.5,115.5 Z"/></g>
<g><path style="opacity:0.592" fill="#6d9aff" d="M 399.5,120.5 C 400.167,120.5 400.833,120.5 401.5,120.5C 402.5,121.833 403.5,123.167 404.5,124.5C 402.251,123.92 400.585,122.587 399.5,120.5 Z"/></g>
<g><path style="opacity:0.012" fill="#d1dfff" d="M 395.5,109.5 C 402.329,115.078 409.329,120.412 416.5,125.5C 416.5,125.833 416.5,126.167 416.5,126.5C 415.833,126.5 415.167,126.5 414.5,126.5C 409.587,123.882 405.254,120.548 401.5,116.5C 399.5,114.167 397.5,111.833 395.5,109.5 Z"/></g>
<g><path style="opacity:0.443" fill="#91b2ff" d="M 401.5,120.5 C 404.063,120.731 405.73,122.065 406.5,124.5C 405.833,124.5 405.167,124.5 404.5,124.5C 403.5,123.167 402.5,121.833 401.5,120.5 Z"/></g>
<g><path style="opacity:0.773" fill="#5c8fff" d="M 155.5,121.5 C 154.92,123.749 153.587,125.415 151.5,126.5C 151.731,123.937 153.065,122.27 155.5,121.5 Z"/></g>
<g><path style="opacity:0.714" fill="#6594ff" d="M 404.5,124.5 C 405.167,124.5 405.833,124.5 406.5,124.5C 407.833,126.167 409.167,127.833 410.5,129.5C 407.911,128.581 405.911,126.914 404.5,124.5 Z"/></g>
<g><path style="opacity:0.788" fill="#5c8fff" d="M 151.5,126.5 C 151.262,128.404 150.262,129.738 148.5,130.5C 148.554,128.368 149.554,127.035 151.5,126.5 Z"/></g>
<g><path style="opacity:0.443" fill="#729dff" d="M 410.5,129.5 C 411.873,129.343 413.207,129.51 414.5,130C 420.223,135.375 426.557,140.042 433.5,144C 436.094,146.086 438.094,148.586 439.5,151.5C 429.238,144.878 419.571,137.545 410.5,129.5 Z"/></g>
<g><path style="opacity:0.855" fill="#548aff" d="M 148.5,130.5 C 148.573,132.027 147.906,133.027 146.5,133.5C 146.427,131.973 147.094,130.973 148.5,130.5 Z"/></g>
<g><path style="opacity:0.004" fill="#ddefff" d="M 139.5,132.5 C 137.762,134.921 136.429,137.588 135.5,140.5C 134.5,141.167 133.5,141.833 132.5,142.5C 132.5,142.167 132.5,141.833 132.5,141.5C 134.12,137.918 136.453,134.918 139.5,132.5 Z"/></g>
<g><path style="opacity:0.788" fill="#6997ff" d="M 143.5,135.5 C 143.833,135.5 144.167,135.5 144.5,135.5C 143.833,136.833 143.167,138.167 142.5,139.5C 141.5,140.167 140.5,140.833 139.5,141.5C 140.449,139.223 141.782,137.223 143.5,135.5 Z"/></g>
<g><path style="opacity:0.008" fill="#b3caff" d="M 414.5,126.5 C 415.167,126.5 415.833,126.5 416.5,126.5C 426.717,133.377 436.05,141.377 444.5,150.5C 439.482,147.996 435.149,144.496 431.5,140C 425.923,136.39 420.59,132.557 415.5,128.5C 415.167,127.833 414.833,127.167 414.5,126.5 Z"/></g>
<g><path style="opacity:0.004" fill="#dee8ff" d="M 416.5,125.5 C 417.5,125.5 418.5,125.5 419.5,125.5C 425.271,130.939 431.604,135.605 438.5,139.5C 441.464,144.131 445.131,148.131 449.5,151.5C 447.784,151.371 446.117,151.038 444.5,150.5C 436.05,141.377 426.717,133.377 416.5,126.5C 416.5,126.167 416.5,125.833 416.5,125.5 Z"/></g>
<g><path style="opacity:0.157" fill="#92b3ff" d="M 406.5,124.5 C 409.5,125.833 412.5,127.167 415.5,128.5C 420.59,132.557 425.923,136.39 431.5,140C 435.149,144.496 439.482,147.996 444.5,150.5C 444.973,151.906 445.973,152.573 447.5,152.5C 447.511,154.017 448.177,155.184 449.5,156C 452.249,158.423 455.249,160.423 458.5,162C 460.647,165.115 463.147,167.948 466,170.5C 466.333,169.833 466.667,169.167 467,168.5C 467.671,169.252 468.504,169.586 469.5,169.5C 470.262,171.262 471.596,172.262 473.5,172.5C 478.241,177.052 483.241,181.385 488.5,185.5C 490.252,187.246 491.585,189.246 492.5,191.5C 486.148,186.809 479.815,182.142 473.5,177.5C 471.777,175.782 469.777,174.449 467.5,173.5C 467.027,172.094 466.027,171.427 464.5,171.5C 462.037,167.7 458.704,165.033 454.5,163.5C 454.027,162.094 453.027,161.427 451.5,161.5C 449.666,159.495 447.999,157.328 446.5,155C 444.114,153.807 441.78,152.64 439.5,151.5C 438.094,148.586 436.094,146.086 433.5,144C 426.557,140.042 420.223,135.375 414.5,130C 413.207,129.51 411.873,129.343 410.5,129.5C 409.167,127.833 407.833,126.167 406.5,124.5 Z"/></g>
<g><path style="opacity:0.008" fill="#ccfafe" d="M 132.5,141.5 C 132.5,141.833 132.5,142.167 132.5,142.5C 131.167,143.167 130.167,144.167 129.5,145.5C 126.306,146.758 122.973,147.424 119.5,147.5C 119.167,147.5 118.833,147.5 118.5,147.5C 118.5,147.167 118.5,146.833 118.5,146.5C 123.661,146.004 128.328,144.337 132.5,141.5 Z"/></g>
<g><path style="opacity:0.004" fill="#eefefa" d="M 44.5,145.5 C 68.9944,146.498 93.661,146.831 118.5,146.5C 118.5,146.833 118.5,147.167 118.5,147.5C 90.8333,147.5 63.1667,147.5 35.5,147.5C 38.3112,146.525 41.3112,145.858 44.5,145.5 Z"/></g>
<g><path style="opacity:0.094" fill="#aaeafe" d="M 135.5,140.5 C 135.833,140.5 136.167,140.5 136.5,140.5C 134.615,142.053 133.615,144.053 133.5,146.5C 132.094,146.973 131.427,147.973 131.5,149.5C 130.833,149.833 130.167,150.167 129.5,150.5C 128.503,150.53 127.836,150.03 127.5,149C 127.978,147.697 128.645,146.531 129.5,145.5C 130.167,144.167 131.167,143.167 132.5,142.5C 133.5,141.833 134.5,141.167 135.5,140.5 Z"/></g>
<g><path style="opacity:0.941" fill="#21a7ef" d="M 139.5,141.5 C 139.5,142.167 139.5,142.833 139.5,143.5C 137.535,149.234 139.535,152.9 145.5,154.5C 205.167,154.5 264.833,154.5 324.5,154.5C 325.919,155.451 327.585,155.784 329.5,155.5C 331.261,156.313 332.928,157.313 334.5,158.5C 333.833,158.5 333.167,158.5 332.5,158.5C 330.194,158.007 327.861,157.674 325.5,157.5C 325.167,157.5 324.833,157.5 324.5,157.5C 263.294,156.826 201.961,156.159 140.5,155.5C 138.319,152.686 136.652,149.686 135.5,146.5C 136.124,144.246 137.457,142.579 139.5,141.5 Z"/></g>
<g><path style="opacity:0.694" fill="#6bd9ff" d="M 133.5,146.5 C 133.5,147.167 133.833,147.5 134.5,147.5C 134.5,148.5 134.5,149.5 134.5,150.5C 133.833,150.167 133.167,149.833 132.5,149.5C 132.167,149.5 131.833,149.5 131.5,149.5C 131.427,147.973 132.094,146.973 133.5,146.5 Z"/></g>
<g><path style="opacity:0.996" fill="#2899fe" d="M 139.5,143.5 C 139.687,145.564 140.187,147.564 141,149.5C 142.707,151.037 144.207,152.704 145.5,154.5C 139.535,152.9 137.535,149.234 139.5,143.5 Z"/></g>
<g><path style="opacity:0.012" fill="#adfaec" d="M 119.5,148.5 C 124.411,151.113 123.744,153.113 117.5,154.5C 114.992,152.763 111.992,151.93 108.5,152C 87.1667,151.333 65.8333,151.333 44.5,152C 39.8097,152.503 35.143,153.17 30.5,154C 29.5842,154.278 28.9175,154.778 28.5,155.5C 25.8527,155.929 23.8527,157.262 22.5,159.5C 16.8852,162.436 12.8852,166.77 10.5,172.5C 10.2872,169.549 10.9539,166.882 12.5,164.5C 16.3892,160.559 20.3892,156.726 24.5,153C 28.3634,151.268 32.3634,149.934 36.5,149C 64.1647,148.5 91.8313,148.333 119.5,148.5 Z"/></g>
<g><path style="opacity:1" fill="#2872fe" d="M 144.5,149.5 C 204.177,149.124 263.843,149.624 323.5,151C 326.5,151.333 329.5,151.667 332.5,152C 344.713,158.005 354.213,166.838 361,178.5C 361.7,188.728 361.2,198.895 359.5,209C 360.167,215 360.833,221 361.5,227C 360.983,233.736 359.983,240.403 358.5,247C 359.26,262.154 359.76,277.32 360,292.5C 360.893,295.433 361.393,298.433 361.5,301.5C 360.607,308.524 359.607,315.524 358.5,322.5C 359.271,338.827 359.937,355.161 360.5,371.5C 359.226,382.45 358.226,393.45 357.5,404.5C 360.167,404.833 362.833,405.167 365.5,405.5C 365.5,406.167 365.167,406.5 364.5,406.5C 358.622,407.491 355.122,405.157 354,399.5C 353.833,326.666 353.333,253.999 352.5,181.5C 352.167,181.5 351.833,181.5 351.5,181.5C 351.5,179.833 351.5,178.167 351.5,176.5C 351.445,173.386 350.112,171.052 347.5,169.5C 347.167,168.5 346.5,167.833 345.5,167.5C 345.262,165.596 344.262,164.262 342.5,163.5C 341.5,163.167 340.833,162.5 340.5,161.5C 339.738,159.738 338.404,158.738 336.5,158.5C 336.586,157.504 336.252,156.671 335.5,156C 333.527,155.505 331.527,155.338 329.5,155.5C 327.585,155.784 325.919,155.451 324.5,154.5C 265.668,153.667 206.668,153.167 147.5,153C 146.29,151.961 145.29,150.794 144.5,149.5 Z"/></g>
<g><path style="opacity:0.113" fill="#a5f9ea" d="M 117.5,154.5 C 116.833,154.5 116.5,154.833 116.5,155.5C 87.1667,155.5 57.8333,155.5 28.5,155.5C 28.9175,154.778 29.5842,154.278 30.5,154C 35.143,153.17 39.8097,152.503 44.5,152C 65.8333,151.333 87.1667,151.333 108.5,152C 111.992,151.93 114.992,152.763 117.5,154.5 Z"/></g>
<g><path style="opacity:0.608" fill="#6998ff" d="M 439.5,151.5 C 441.78,152.64 444.114,153.807 446.5,155C 447.999,157.328 449.666,159.495 451.5,161.5C 448.203,159.217 444.869,156.884 441.5,154.5C 440.575,153.643 439.908,152.643 439.5,151.5 Z"/></g>
<g><path style="opacity:0.004" fill="#c5d5ff" d="M 444.5,150.5 C 446.117,151.038 447.784,151.371 449.5,151.5C 449.833,152.167 450.167,152.833 450.5,153.5C 449.391,153.443 448.391,153.11 447.5,152.5C 445.973,152.573 444.973,151.906 444.5,150.5 Z"/></g>
<g><path style="opacity:0.269" fill="#9cf1f1" d="M 129.5,145.5 C 128.645,146.531 127.978,147.697 127.5,149C 127.836,150.03 128.503,150.53 129.5,150.5C 127.424,152.584 125.09,154.251 122.5,155.5C 121.5,155.5 120.5,155.5 119.5,155.5C 118.5,155.5 117.5,155.5 116.5,155.5C 116.5,154.833 116.833,154.5 117.5,154.5C 123.744,153.113 124.411,151.113 119.5,148.5C 119.5,148.167 119.5,147.833 119.5,147.5C 122.973,147.424 126.306,146.758 129.5,145.5 Z"/></g>
<g><path style="opacity:0.996" fill="#2bc7f9" d="M 135.5,146.5 C 136.652,149.686 138.319,152.686 140.5,155.5C 139.833,155.5 139.167,155.5 138.5,155.5C 138.167,155.5 137.833,155.5 137.5,155.5C 136.248,153.999 135.248,152.332 134.5,150.5C 134.5,149.5 134.5,148.5 134.5,147.5C 134.5,146.833 134.833,146.5 135.5,146.5 Z"/></g>
<g><path style="opacity:0.996" fill="#26daf4" d="M 132.5,149.5 C 133.167,149.833 133.833,150.167 134.5,150.5C 135.248,152.332 136.248,153.999 137.5,155.5C 136.833,155.5 136.167,155.5 135.5,155.5C 133.975,153.784 132.975,151.784 132.5,149.5 Z"/></g>
<g><path style="opacity:1" fill="#1385f9" d="M 142.5,139.5 C 141.565,142.113 141.398,144.779 142,147.5C 142.708,148.381 143.542,149.047 144.5,149.5C 145.29,150.794 146.29,151.961 147.5,153C 206.668,153.167 265.668,153.667 324.5,154.5C 264.833,154.5 205.167,154.5 145.5,154.5C 144.207,152.704 142.707,151.037 141,149.5C 140.187,147.564 139.687,145.564 139.5,143.5C 139.5,142.833 139.5,142.167 139.5,141.5C 140.5,140.833 141.5,140.167 142.5,139.5 Z"/></g>
<g><path style="opacity:0.792" fill="#49e8ee" d="M 131.5,149.5 C 131.833,149.5 132.167,149.5 132.5,149.5C 132.975,151.784 133.975,153.784 135.5,155.5C 131.167,155.5 126.833,155.5 122.5,155.5C 125.09,154.251 127.424,152.584 129.5,150.5C 130.167,150.167 130.833,149.833 131.5,149.5 Z"/></g>
<g><path style="opacity:0.506" fill="#82f5df" d="M 28.5,155.5 C 57.8333,155.5 87.1667,155.5 116.5,155.5C 117.5,155.5 118.5,155.5 119.5,155.5C 119.5,155.833 119.5,156.167 119.5,156.5C 89.1648,156.333 58.8315,156.5 28.5,157C 26.3716,157.655 24.3716,158.489 22.5,159.5C 23.8527,157.262 25.8527,155.929 28.5,155.5 Z"/></g>
<g><path style="opacity:0.996" fill="#1fe5de" d="M 119.5,156.5 C 119.5,156.167 119.5,155.833 119.5,155.5C 120.5,155.5 121.5,155.5 122.5,155.5C 126.833,155.5 131.167,155.5 135.5,155.5C 136.167,155.5 136.833,155.5 137.5,155.5C 137.833,155.5 138.167,155.5 138.5,155.5C 139.167,156.167 139.833,156.833 140.5,157.5C 133.543,156.614 126.543,156.28 119.5,156.5 Z"/></g>
<g><path style="opacity:1" fill="#1b7ef9" d="M 329.5,155.5 C 331.527,155.338 333.527,155.505 335.5,156C 336.252,156.671 336.586,157.504 336.5,158.5C 335.833,158.5 335.167,158.5 334.5,158.5C 332.928,157.313 331.261,156.313 329.5,155.5 Z"/></g>
<g><path style="opacity:1" fill="#00c8cf" d="M 138.5,155.5 C 139.167,155.5 139.833,155.5 140.5,155.5C 201.961,156.159 263.294,156.826 324.5,157.5C 263.167,157.5 201.833,157.5 140.5,157.5C 139.833,156.833 139.167,156.167 138.5,155.5 Z"/></g>
<g><path style="opacity:0.082" fill="#b2c9ff" d="M 447.5,152.5 C 448.391,153.11 449.391,153.443 450.5,153.5C 452.023,156.364 454.357,158.031 457.5,158.5C 459.569,161.573 462.236,163.906 465.5,165.5C 466.167,165.5 466.833,165.5 467.5,165.5C 468.167,166.833 468.833,168.167 469.5,169.5C 468.504,169.586 467.671,169.252 467,168.5C 466.667,169.167 466.333,169.833 466,170.5C 463.147,167.948 460.647,165.115 458.5,162C 455.249,160.423 452.249,158.423 449.5,156C 448.177,155.184 447.511,154.017 447.5,152.5 Z"/></g>
<g><path style="opacity:0.82" fill="#2be8c6" d="M 119.5,156.5 C 126.543,156.28 133.543,156.614 140.5,157.5C 201.833,157.5 263.167,157.5 324.5,157.5C 324.833,157.5 325.167,157.5 325.5,157.5C 325.5,157.833 325.5,158.167 325.5,158.5C 263.5,158.5 201.5,158.5 139.5,158.5C 102.498,158.333 65.4985,158.5 28.5,159C 20.1354,162.858 14.4687,169.024 11.5,177.5C 11.9758,173.905 13.1425,170.572 15,167.5C 17.677,164.99 20.177,162.323 22.5,159.5C 24.3716,158.489 26.3716,157.655 28.5,157C 58.8315,156.5 89.1648,156.333 119.5,156.5 Z"/></g>
<g><path style="opacity:0.004" fill="#d7e3ff" d="M 449.5,151.5 C 452.79,153.124 455.457,155.457 457.5,158.5C 454.357,158.031 452.023,156.364 450.5,153.5C 450.167,152.833 449.833,152.167 449.5,151.5 Z"/></g>
<g><path style="opacity:1" fill="#00e9b8" d="M 139.5,158.5 C 203.009,159.2 266.676,159.866 330.5,160.5C 331.167,160.5 331.833,160.5 332.5,160.5C 333.833,160.833 335.167,161.167 336.5,161.5C 337.167,162.833 338.167,163.833 339.5,164.5C 340.415,166.754 341.748,168.754 343.5,170.5C 343.5,171.167 343.5,171.833 343.5,172.5C 344.198,178.467 344.698,184.467 345,190.5C 345.167,219.167 345.333,247.833 345.5,276.5C 345.355,317.695 345.021,358.862 344.5,400C 345.379,409.957 346.379,419.79 347.5,429.5C 346.914,445.497 346.414,461.497 346,477.5C 344.533,483.101 342.033,488.101 338.5,492.5C 333.944,494.275 329.277,495.775 324.5,497C 227.834,497.5 131.167,497.667 34.5,497.5C 30.3735,497.428 26.3735,496.761 22.5,495.5C 18.706,492.047 15.706,488.047 13.5,483.5C 13.313,481.436 12.813,479.436 12,477.5C 11.5,379.501 11.3333,281.501 11.5,183.5C 11.5,181.5 11.5,179.5 11.5,177.5C 14.4687,169.024 20.1354,162.858 28.5,159C 65.4985,158.5 102.498,158.333 139.5,158.5 Z"/></g>
<g><path style="opacity:1" fill="#00e5ba" d="M 139.5,158.5 C 201.5,158.5 263.5,158.5 325.5,158.5C 327.167,159.167 328.833,159.833 330.5,160.5C 266.676,159.866 203.009,159.2 139.5,158.5 Z"/></g>
<g><path style="opacity:1" fill="#04d3c7" d="M 325.5,157.5 C 327.861,157.674 330.194,158.007 332.5,158.5C 332.5,158.833 332.5,159.167 332.5,159.5C 332.5,159.833 332.5,160.167 332.5,160.5C 331.833,160.5 331.167,160.5 330.5,160.5C 328.833,159.833 327.167,159.167 325.5,158.5C 325.5,158.167 325.5,157.833 325.5,157.5 Z"/></g>
<g><path style="opacity:1" fill="#1687f4" d="M 336.5,158.5 C 338.404,158.738 339.738,159.738 340.5,161.5C 339.833,161.5 339.167,161.5 338.5,161.5C 337.833,160.5 337.167,159.5 336.5,158.5 Z"/></g>
<g><path style="opacity:1" fill="#02c8d0" d="M 332.5,160.5 C 332.5,160.167 332.5,159.833 332.5,159.5C 334.38,159.229 335.713,159.896 336.5,161.5C 335.167,161.167 333.833,160.833 332.5,160.5 Z"/></g>
<g><path style="opacity:1" fill="#0ba6e4" d="M 332.5,159.5 C 332.5,159.167 332.5,158.833 332.5,158.5C 333.167,158.5 333.833,158.5 334.5,158.5C 335.167,158.5 335.833,158.5 336.5,158.5C 337.167,159.5 337.833,160.5 338.5,161.5C 337.833,161.5 337.167,161.5 336.5,161.5C 335.713,159.896 334.38,159.229 332.5,159.5 Z"/></g>
<g><path style="opacity:0.004" fill="#edfefa" d="M 20.5,153.5 C 14.3797,159.076 8.71303,165.076 3.5,171.5C 3.75526,168.984 4.58859,166.65 6,164.5C 10.4448,160.209 15.2781,156.542 20.5,153.5 Z"/></g>
<g><path style="opacity:1" fill="#04c3d3" d="M 336.5,161.5 C 337.167,161.5 337.833,161.5 338.5,161.5C 339.167,162.5 339.833,163.5 340.5,164.5C 340.167,164.5 339.833,164.5 339.5,164.5C 338.167,163.833 337.167,162.833 336.5,161.5 Z"/></g>
<g><path style="opacity:1" fill="#0ca0e7" d="M 338.5,161.5 C 339.167,161.5 339.833,161.5 340.5,161.5C 340.833,162.5 341.5,163.167 342.5,163.5C 342.5,163.833 342.5,164.167 342.5,164.5C 341.833,164.5 341.167,164.5 340.5,164.5C 339.833,163.5 339.167,162.5 338.5,161.5 Z"/></g>
<g><path style="opacity:0.702" fill="#6092ff" d="M 451.5,161.5 C 453.027,161.427 454.027,162.094 454.5,163.5C 452.973,163.573 451.973,162.906 451.5,161.5 Z"/></g>
<g><path style="opacity:0.004" fill="#d5e1ff" d="M 457.5,158.5 C 460.764,160.094 463.431,162.427 465.5,165.5C 462.236,163.906 459.569,161.573 457.5,158.5 Z"/></g>
<g><path style="opacity:0.004" fill="#f5f8ff" d="M 438.5,139.5 C 453.673,151.168 469.007,162.668 484.5,174C 491.803,180.302 498.803,186.968 505.5,194C 507.388,195.394 509.388,196.56 511.5,197.5C 511.5,200.5 511.5,203.5 511.5,206.5C 509.427,204.42 507.093,202.754 504.5,201.5C 504.975,198.687 503.975,196.687 501.5,195.5C 501.262,193.596 500.262,192.262 498.5,191.5C 496.167,187.167 492.833,183.833 488.5,181.5C 484.442,178.11 480.109,175.11 475.5,172.5C 472.788,170.115 470.122,167.782 467.5,165.5C 466.833,165.5 466.167,165.5 465.5,165.5C 463.431,162.427 460.764,160.094 457.5,158.5C 455.457,155.457 452.79,153.124 449.5,151.5C 445.131,148.131 441.464,144.131 438.5,139.5 Z"/></g>
<g><path style="opacity:1" fill="#07b3dc" d="M 340.5,164.5 C 341.167,164.5 341.833,164.5 342.5,164.5C 343.167,165.833 344.167,166.833 345.5,167.5C 345.5,168.167 345.5,168.833 345.5,169.5C 343.5,168.167 341.833,166.5 340.5,164.5 Z"/></g>
<g><path style="opacity:1" fill="#1092ef" d="M 342.5,163.5 C 344.262,164.262 345.262,165.596 345.5,167.5C 344.167,166.833 343.167,165.833 342.5,164.5C 342.5,164.167 342.5,163.833 342.5,163.5 Z"/></g>
<g><path style="opacity:1" fill="#02d6c6" d="M 339.5,164.5 C 339.833,164.5 340.167,164.5 340.5,164.5C 341.833,166.5 343.5,168.167 345.5,169.5C 345.5,170.167 345.5,170.833 345.5,171.5C 344.833,171.167 344.167,170.833 343.5,170.5C 341.748,168.754 340.415,166.754 339.5,164.5 Z"/></g>
<g><path style="opacity:0.004" fill="#d0fcf4" d="M 35.5,147.5 C 63.1667,147.5 90.8333,147.5 118.5,147.5C 118.833,147.5 119.167,147.5 119.5,147.5C 119.5,147.833 119.5,148.167 119.5,148.5C 91.8313,148.333 64.1647,148.5 36.5,149C 32.3634,149.934 28.3634,151.268 24.5,153C 20.3892,156.726 16.3892,160.559 12.5,164.5C 9.16667,167.833 5.83333,171.167 2.5,174.5C 2.26269,173.209 2.59603,172.209 3.5,171.5C 8.71303,165.076 14.3797,159.076 20.5,153.5C 25.1046,150.704 30.1046,148.704 35.5,147.5 Z"/></g>
<g><path style="opacity:0.631" fill="#6696ff" d="M 454.5,163.5 C 458.704,165.033 462.037,167.7 464.5,171.5C 460.75,169.308 457.417,166.641 454.5,163.5 Z"/></g>
<g><path style="opacity:1" fill="#0d98eb" d="M 345.5,167.5 C 346.5,167.833 347.167,168.5 347.5,169.5C 347.5,169.833 347.5,170.167 347.5,170.5C 346.833,170.167 346.167,169.833 345.5,169.5C 345.5,168.833 345.5,168.167 345.5,167.5 Z"/></g>
<g><path style="opacity:1" fill="#06b5db" d="M 345.5,169.5 C 346.167,169.833 346.833,170.167 347.5,170.5C 347.5,170.833 347.5,171.167 347.5,171.5C 347.5,171.833 347.5,172.167 347.5,172.5C 346.833,172.167 346.167,171.833 345.5,171.5C 345.5,170.833 345.5,170.167 345.5,169.5 Z"/></g>
<g><path style="opacity:0.682" fill="#6495ff" d="M 464.5,171.5 C 466.027,171.427 467.027,172.094 467.5,173.5C 465.973,173.573 464.973,172.906 464.5,171.5 Z"/></g>
<g><path style="opacity:0.004" fill="#ceddff" d="M 467.5,165.5 C 470.122,167.782 472.788,170.115 475.5,172.5C 474.833,172.5 474.167,172.5 473.5,172.5C 471.596,172.262 470.262,171.262 469.5,169.5C 468.833,168.167 468.167,166.833 467.5,165.5 Z"/></g>
<g><path style="opacity:1" fill="#00e8bb" d="M 343.5,172.5 C 344.793,173.842 345.626,175.509 346,177.5C 346.167,256.334 346.667,335.001 347.5,413.5C 347.833,414.167 348.167,414.833 348.5,415.5C 349.19,435.498 349.357,455.498 349,475.5C 347.427,482.427 343.927,488.094 338.5,492.5C 342.033,488.101 344.533,483.101 346,477.5C 346.414,461.497 346.914,445.497 347.5,429.5C 346.379,419.79 345.379,409.957 344.5,400C 345.021,358.862 345.355,317.695 345.5,276.5C 345.333,247.833 345.167,219.167 345,190.5C 344.698,184.467 344.198,178.467 343.5,172.5 Z"/></g>
<g><path style="opacity:1" fill="#0ba0e7" d="M 347.5,171.5 C 348.906,171.973 349.573,172.973 349.5,174.5C 349.5,175.167 349.5,175.833 349.5,176.5C 348.655,175.329 347.989,173.995 347.5,172.5C 347.5,172.167 347.5,171.833 347.5,171.5 Z"/></g>
<g><path style="opacity:1" fill="#1b80f7" d="M 347.5,169.5 C 350.112,171.052 351.445,173.386 351.5,176.5C 350.833,175.833 350.167,175.167 349.5,174.5C 349.573,172.973 348.906,171.973 347.5,171.5C 347.5,171.167 347.5,170.833 347.5,170.5C 347.5,170.167 347.5,169.833 347.5,169.5 Z"/></g>
<g><path style="opacity:0.655" fill="#6293ff" d="M 467.5,173.5 C 469.777,174.449 471.777,175.782 473.5,177.5C 472.833,177.5 472.167,177.5 471.5,177.5C 469.736,176.674 468.402,175.341 467.5,173.5 Z"/></g>
<g><path style="opacity:1" fill="#04cbcd" d="M 345.5,171.5 C 346.167,171.833 346.833,172.167 347.5,172.5C 347.989,173.995 348.655,175.329 349.5,176.5C 349.5,176.833 349.5,177.167 349.5,177.5C 349.5,178.833 349.5,180.167 349.5,181.5C 349.167,181.5 348.833,181.5 348.5,181.5C 348.5,180.833 348.167,180.5 347.5,180.5C 347.79,177.215 347.123,174.215 345.5,171.5 Z"/></g>
<g><path style="opacity:1" fill="#1390ef" d="M 349.5,174.5 C 350.167,175.167 350.833,175.833 351.5,176.5C 351.5,178.167 351.5,179.833 351.5,181.5C 351.167,181.5 350.833,181.5 350.5,181.5C 350.768,179.901 350.434,178.568 349.5,177.5C 349.5,177.167 349.5,176.833 349.5,176.5C 349.5,175.833 349.5,175.167 349.5,174.5 Z"/></g>
<g><path style="opacity:1" fill="#00e3bc" d="M 343.5,170.5 C 344.167,170.833 344.833,171.167 345.5,171.5C 347.123,174.215 347.79,177.215 347.5,180.5C 347.5,258.167 347.5,335.833 347.5,413.5C 346.667,335.001 346.167,256.334 346,177.5C 345.626,175.509 344.793,173.842 343.5,172.5C 343.5,171.833 343.5,171.167 343.5,170.5 Z"/></g>
<g><path style="opacity:0.824" fill="#4b83ff" d="M 471.5,177.5 C 472.167,177.5 472.833,177.5 473.5,177.5C 474.5,178.833 475.5,180.167 476.5,181.5C 474.251,180.92 472.585,179.587 471.5,177.5 Z"/></g>
<g><path style="opacity:0.004" fill="#dae5ff" d="M 488.5,181.5 C 492.833,183.833 496.167,187.167 498.5,191.5C 494.833,188.5 491.5,185.167 488.5,181.5 Z"/></g>
<g><path style="opacity:1" fill="#00dec0" d="M 347.5,180.5 C 348.167,180.5 348.5,180.833 348.5,181.5C 348.173,259.541 348.506,337.541 349.5,415.5C 349.167,415.5 348.833,415.5 348.5,415.5C 348.167,414.833 347.833,414.167 347.5,413.5C 347.5,335.833 347.5,258.167 347.5,180.5 Z"/></g>
<g><path style="opacity:0.733" fill="#20f0c9" d="M 11.5,177.5 C 11.5,179.5 11.5,181.5 11.5,183.5C 10.5006,279.665 10.1672,375.999 10.5,472.5C 9.33419,375.334 9.16752,278.001 10,180.5C 10.2321,179.263 10.7321,178.263 11.5,177.5 Z"/></g>
<g><path style="opacity:1" fill="#00c2d4" d="M 349.5,177.5 C 350.434,178.568 350.768,179.901 350.5,181.5C 350.173,257.874 350.506,334.208 351.5,410.5C 351.5,411.167 351.5,411.833 351.5,412.5C 351.167,412.5 350.833,412.5 350.5,412.5C 349.503,335.571 349.17,258.571 349.5,181.5C 349.5,180.167 349.5,178.833 349.5,177.5 Z"/></g>
<g><path style="opacity:1" fill="#257df6" d="M 352.5,181.5 C 353.333,253.999 353.833,326.666 354,399.5C 355.122,405.157 358.622,407.491 364.5,406.5C 364.389,407.117 364.056,407.617 363.5,408C 361.5,408.667 359.5,408.667 357.5,408C 356.295,406.624 354.962,405.458 353.5,404.5C 352.503,330.238 352.17,255.904 352.5,181.5 Z"/></g>
<g><path style="opacity:0.749" fill="#5f90ff" d="M 473.5,177.5 C 479.815,182.142 486.148,186.809 492.5,191.5C 493.925,192.922 494.925,194.589 495.5,196.5C 494.167,195.5 492.833,194.5 491.5,193.5C 486.476,189.47 481.476,185.47 476.5,181.5C 475.5,180.167 474.5,178.833 473.5,177.5 Z"/></g>
<g><path style="opacity:1" fill="#1891ec" d="M 351.5,181.5 C 351.833,181.5 352.167,181.5 352.5,181.5C 352.17,255.904 352.503,330.238 353.5,404.5C 353.683,406.988 354.683,408.988 356.5,410.5C 354.248,410.084 352.748,408.751 352,406.5C 351.5,331.501 351.333,256.501 351.5,181.5 Z"/></g>
<g><path style="opacity:0.012" fill="#bed1ff" d="M 473.5,172.5 C 474.167,172.5 474.833,172.5 475.5,172.5C 480.109,175.11 484.442,178.11 488.5,181.5C 491.5,185.167 494.833,188.5 498.5,191.5C 500.262,192.262 501.262,193.596 501.5,195.5C 501.5,196.167 501.5,196.833 501.5,197.5C 497.799,192.799 493.466,188.799 488.5,185.5C 483.241,181.385 478.241,177.052 473.5,172.5 Z"/></g>
<g><path style="opacity:0.322" fill="#a6f9eb" d="M 9.5,174.5 C 8.34018,274.805 8.17352,375.139 9,475.5C 9.53342,478.929 10.3668,482.262 11.5,485.5C 9.05943,483.925 7.89276,481.592 8,478.5C 7.33333,377.5 7.33333,276.5 8,175.5C 8.38258,174.944 8.88258,174.611 9.5,174.5 Z"/></g>
<g><path style="opacity:0.882" fill="#07ecbd" d="M 11.5,183.5 C 11.3333,281.501 11.5,379.501 12,477.5C 12.813,479.436 13.313,481.436 13.5,483.5C 12.8826,483.389 12.3826,483.056 12,482.5C 10.9571,479.243 10.4571,475.91 10.5,472.5C 10.1672,375.999 10.5006,279.665 11.5,183.5 Z"/></g>
<g><path style="opacity:0.541" fill="#69f5dd" d="M 22.5,159.5 C 20.177,162.323 17.677,164.99 15,167.5C 13.1425,170.572 11.9758,173.905 11.5,177.5C 10.7321,178.263 10.2321,179.263 10,180.5C 9.16752,278.001 9.33419,375.334 10.5,472.5C 10.4571,475.91 10.9571,479.243 12,482.5C 12.3826,483.056 12.8826,483.389 13.5,483.5C 15.706,488.047 18.706,492.047 22.5,495.5C 21.8333,495.5 21.1667,495.5 20.5,495.5C 17.4715,492.141 14.4715,488.808 11.5,485.5C 10.3668,482.262 9.53342,478.929 9,475.5C 8.17352,375.139 8.34018,274.805 9.5,174.5C 9.32842,173.508 9.66175,172.842 10.5,172.5C 12.8852,166.77 16.8852,162.436 22.5,159.5 Z"/></g>
<g><path style="opacity:0.173" fill="#aec6ff" d="M 488.5,185.5 C 493.466,188.799 497.799,192.799 501.5,197.5C 502.857,198.59 503.857,199.924 504.5,201.5C 504.5,202.167 504.5,202.833 504.5,203.5C 505.15,205.435 505.483,207.435 505.5,209.5C 503.865,206.854 502.198,204.187 500.5,201.5C 499.833,201.167 499.167,200.833 498.5,200.5C 498.262,198.596 497.262,197.262 495.5,196.5C 494.925,194.589 493.925,192.922 492.5,191.5C 491.585,189.246 490.252,187.246 488.5,185.5 Z"/></g>
<g><path style="opacity:0.933" fill="#4a82ff" d="M 491.5,193.5 C 492.833,194.5 494.167,195.5 495.5,196.5C 497.262,197.262 498.262,198.596 498.5,200.5C 495.145,199.145 492.811,196.811 491.5,193.5 Z"/></g>
<g><path style="opacity:0.02" fill="#d7e4ff" d="M 501.5,195.5 C 503.975,196.687 504.975,198.687 504.5,201.5C 503.857,199.924 502.857,198.59 501.5,197.5C 501.5,196.833 501.5,196.167 501.5,195.5 Z"/></g>
<g><path style="opacity:0.027" fill="#e8eeff" d="M 504.5,201.5 C 507.093,202.754 509.427,204.42 511.5,206.5C 511.5,213.167 511.5,219.833 511.5,226.5C 508.785,229.214 506.451,232.214 504.5,235.5C 501.5,238.833 498.5,242.167 495.5,245.5C 498.167,240.833 500.833,236.167 503.5,231.5C 503.5,230.5 503.5,229.5 503.5,228.5C 504.797,226.629 505.797,224.629 506.5,222.5C 507.648,218.019 507.815,213.352 507,208.5C 506.901,206.347 506.067,204.681 504.5,203.5C 504.5,202.833 504.5,202.167 504.5,201.5 Z"/></g>
<g><path style="opacity:0.833" fill="#4e86ff" d="M 498.5,200.5 C 499.167,200.833 499.833,201.167 500.5,201.5C 500.629,203.216 500.962,204.883 501.5,206.5C 499.755,204.967 498.755,202.967 498.5,200.5 Z"/></g>
<g><path style="opacity:0.2" fill="#d7e2ff" d="M 504.5,203.5 C 506.067,204.681 506.901,206.347 507,208.5C 507.815,213.352 507.648,218.019 506.5,222.5C 506.818,217.968 506.485,213.634 505.5,209.5C 505.483,207.435 505.15,205.435 504.5,203.5 Z"/></g>
<g><path style="opacity:0.532" fill="#8cb0ff" d="M 500.5,201.5 C 502.198,204.187 503.865,206.854 505.5,209.5C 505.817,213.702 505.483,217.702 504.5,221.5C 504.844,216.878 504.177,212.545 502.5,208.5C 502.672,207.508 502.338,206.842 501.5,206.5C 500.962,204.883 500.629,203.216 500.5,201.5 Z"/></g>
<g><path style="opacity:0.333" fill="#bdd0ff" d="M 505.5,209.5 C 506.485,213.634 506.818,217.968 506.5,222.5C 505.797,224.629 504.797,226.629 503.5,228.5C 503.993,226.194 504.326,223.861 504.5,221.5C 505.483,217.702 505.817,213.702 505.5,209.5 Z"/></g>
<g><path style="opacity:0.82" fill="#5389ff" d="M 502.5,208.5 C 504.177,212.545 504.844,216.878 504.5,221.5C 503.143,222.59 502.143,223.924 501.5,225.5C 502.032,219.848 502.365,214.181 502.5,208.5 Z"/></g>
<g><path style="opacity:0.776" fill="#588dff" d="M 501.5,225.5 C 501.771,227.38 501.104,228.713 499.5,229.5C 499.66,227.847 500.326,226.514 501.5,225.5 Z"/></g>
<g><path style="opacity:0.776" fill="#5a8dff" d="M 499.5,230.5 C 496.314,236.218 492.648,241.552 488.5,246.5C 491.205,240.396 494.872,235.063 499.5,230.5 Z"/></g>
<g><path style="opacity:0.278" fill="#b0c7ff" d="M 503.5,228.5 C 503.5,229.5 503.5,230.5 503.5,231.5C 500.884,234.455 498.218,237.455 495.5,240.5C 497.673,236.148 500.34,232.148 503.5,228.5 Z"/></g>
<g><path style="opacity:0.004" fill="#f9fbfe" d="M 504.5,235.5 C 503.908,238.691 502.741,241.691 501,244.5C 485.333,265.5 469.667,286.5 454,307.5C 444.919,316.577 436.586,326.243 429,336.5C 423.834,343.495 419.167,350.828 415,358.5C 408.924,363.905 403.591,369.905 399,376.5C 391.217,386.286 384.217,396.62 378,407.5C 374,412.167 370,416.833 366,421.5C 363.211,426.534 361.211,431.868 360,437.5C 359.18,449.076 359.346,460.576 360.5,472C 359.565,480.374 355.898,487.207 349.5,492.5C 350.167,490.5 350.833,488.5 351.5,486.5C 354.846,480.659 357.013,474.325 358,467.5C 358.547,454.158 358.381,440.824 357.5,427.5C 357.232,425.901 357.566,424.568 358.5,423.5C 361.185,420.81 363.518,417.81 365.5,414.5C 368.824,410.676 372.324,407.009 376,403.5C 376.333,402.167 376.667,400.833 377,399.5C 383.743,391.601 390.243,383.601 396.5,375.5C 399.469,372.358 402.302,369.025 405,365.5C 406.136,363.257 406.97,360.924 407.5,358.5C 409.984,356.2 411.984,353.533 413.5,350.5C 419.122,345.263 423.789,339.263 427.5,332.5C 440.306,316.9 452.639,300.9 464.5,284.5C 465.167,284.167 465.833,283.833 466.5,283.5C 474.188,273.804 481.521,263.804 488.5,253.5C 490.862,250.808 493.196,248.141 495.5,245.5C 498.5,242.167 501.5,238.833 504.5,235.5 Z"/></g>
<g><path style="opacity:0.49" fill="#8dafff" d="M 504.5,221.5 C 504.326,223.861 503.993,226.194 503.5,228.5C 500.34,232.148 497.673,236.148 495.5,240.5C 489.21,248.792 482.543,256.792 475.5,264.5C 475.557,263.391 475.89,262.391 476.5,261.5C 480.729,256.722 484.729,251.722 488.5,246.5C 492.648,241.552 496.314,236.218 499.5,230.5C 499.5,230.167 499.5,229.833 499.5,229.5C 501.104,228.713 501.771,227.38 501.5,225.5C 502.143,223.924 503.143,222.59 504.5,221.5 Z"/></g>
<g><path style="opacity:0.024" fill="#d9e4ff" d="M 503.5,231.5 C 500.833,236.167 498.167,240.833 495.5,245.5C 493.196,248.141 490.862,250.808 488.5,253.5C 488.167,253.5 487.833,253.5 487.5,253.5C 490.919,249.669 493.586,245.335 495.5,240.5C 498.218,237.455 500.884,234.455 503.5,231.5 Z"/></g>
<g><path style="opacity:0.753" fill="#5c8eff" d="M 488.5,246.5 C 484.729,251.722 480.729,256.722 476.5,261.5C 479.084,257.067 481.918,252.734 485,248.5C 485.816,247.177 486.983,246.511 488.5,246.5 Z"/></g>
<g><path style="opacity:0.153" fill="#c0d3ff" d="M 495.5,240.5 C 493.586,245.335 490.919,249.669 487.5,253.5C 481.759,259.9 476.426,266.567 471.5,273.5C 471.557,272.391 471.89,271.391 472.5,270.5C 474.539,269.089 475.539,267.089 475.5,264.5C 482.543,256.792 489.21,248.792 495.5,240.5 Z"/></g>
<g><path style="opacity:0.729" fill="#5d8eff" d="M 476.5,261.5 C 475.89,262.391 475.557,263.391 475.5,264.5C 474.833,264.5 474.5,264.833 474.5,265.5C 474.167,265.5 473.833,265.5 473.5,265.5C 473.554,263.368 474.554,262.035 476.5,261.5 Z"/></g>
<g><path style="opacity:0.337" fill="#a1beff" d="M 475.5,264.5 C 475.539,267.089 474.539,269.089 472.5,270.5C 472.893,268.716 473.559,267.05 474.5,265.5C 474.5,264.833 474.833,264.5 475.5,264.5 Z"/></g>
<g><path style="opacity:0.737" fill="#5c8dff" d="M 470.5,269.5 C 468.542,272.792 466.209,275.792 463.5,278.5C 464.694,274.637 467.027,271.637 470.5,269.5 Z"/></g>
<g><path style="opacity:1" fill="#00d4c8" d="M 348.5,181.5 C 348.833,181.5 349.167,181.5 349.5,181.5C 349.17,258.571 349.503,335.571 350.5,412.5C 350.5,413.833 350.5,415.167 350.5,416.5C 350.167,416.5 349.833,416.5 349.5,416.5C 349.5,416.167 349.5,415.833 349.5,415.5C 348.506,337.541 348.173,259.541 348.5,181.5 Z"/></g>
<g><path style="opacity:0.004" fill="#e7eeff" d="M 487.5,253.5 C 487.833,253.5 488.167,253.5 488.5,253.5C 481.521,263.804 474.188,273.804 466.5,283.5C 468.172,280.164 469.838,276.83 471.5,273.5C 476.426,266.567 481.759,259.9 487.5,253.5 Z"/></g>
<g><path style="opacity:0.478" fill="#88acff" d="M 473.5,265.5 C 473.833,265.5 474.167,265.5 474.5,265.5C 473.559,267.05 472.893,268.716 472.5,270.5C 471.89,271.391 471.557,272.391 471.5,273.5C 470.508,273.328 469.842,273.662 469.5,274.5C 466.531,277.642 463.698,280.975 461,284.5C 460.209,285.745 459.709,287.078 459.5,288.5C 457.077,289.95 455.077,291.95 453.5,294.5C 453.167,294.5 452.833,294.5 452.5,294.5C 452.557,293.391 452.89,292.391 453.5,291.5C 457.557,287.716 460.891,283.383 463.5,278.5C 466.209,275.792 468.542,272.792 470.5,269.5C 471.512,268.128 472.512,266.795 473.5,265.5 Z"/></g>
<g><path style="opacity:0.031" fill="#cdddff" d="M 471.5,273.5 C 469.838,276.83 468.172,280.164 466.5,283.5C 465.833,283.833 465.167,284.167 464.5,284.5C 466.167,281.167 467.833,277.833 469.5,274.5C 469.842,273.662 470.508,273.328 471.5,273.5 Z"/></g>
<g><path style="opacity:0.196" fill="#acc6ff" d="M 469.5,274.5 C 467.833,277.833 466.167,281.167 464.5,284.5C 462.427,285.3 460.76,286.633 459.5,288.5C 459.709,287.078 460.209,285.745 461,284.5C 463.698,280.975 466.531,277.642 469.5,274.5 Z"/></g>
<g><path style="opacity:0.753" fill="#568aff" d="M 463.5,278.5 C 460.891,283.383 457.557,287.716 453.5,291.5C 453.709,290.078 454.209,288.745 455,287.5C 457.387,284.043 460.22,281.043 463.5,278.5 Z"/></g>
<g><path style="opacity:0.753" fill="#558aff" d="M 453.5,291.5 C 452.89,292.391 452.557,293.391 452.5,294.5C 451.833,294.833 451.167,295.167 450.5,295.5C 450.554,293.368 451.554,292.035 453.5,291.5 Z"/></g>
<g><path style="opacity:0.208" fill="#bacfff" d="M 459.5,288.5 C 456.305,293.569 452.638,298.235 448.5,302.5C 449.655,299.525 451.322,296.858 453.5,294.5C 455.077,291.95 457.077,289.95 459.5,288.5 Z"/></g>
<g><path style="opacity:0.039" fill="#d7e3ff" d="M 464.5,284.5 C 452.639,300.9 440.306,316.9 427.5,332.5C 427.5,332.167 427.5,331.833 427.5,331.5C 433.755,323.314 439.755,314.981 445.5,306.5C 445.738,304.596 446.738,303.262 448.5,302.5C 452.638,298.235 456.305,293.569 459.5,288.5C 460.76,286.633 462.427,285.3 464.5,284.5 Z"/></g>
<g><path style="opacity:0.412" fill="#94b4ff" d="M 452.5,294.5 C 452.833,294.5 453.167,294.5 453.5,294.5C 451.322,296.858 449.655,299.525 448.5,302.5C 446.738,303.262 445.738,304.596 445.5,306.5C 441.206,312.129 436.539,317.463 431.5,322.5C 438.07,313.704 444.403,304.704 450.5,295.5C 451.167,295.167 451.833,294.833 452.5,294.5 Z"/></g>
<g><path style="opacity:0.482" fill="#8dafff" d="M 431.5,322.5 C 429.86,325.149 428.193,327.816 426.5,330.5C 425.833,330.833 425.167,331.167 424.5,331.5C 426.111,327.949 428.444,324.949 431.5,322.5 Z"/></g>
<g><path style="opacity:0.2" fill="#b9ceff" d="M 445.5,306.5 C 439.755,314.981 433.755,323.314 427.5,331.5C 427.167,331.5 426.833,331.5 426.5,331.5C 426.5,331.167 426.5,330.833 426.5,330.5C 428.193,327.816 429.86,325.149 431.5,322.5C 436.539,317.463 441.206,312.129 445.5,306.5 Z"/></g>
<g><path style="opacity:0.741" fill="#5d8fff" d="M 450.5,295.5 C 444.403,304.704 438.07,313.704 431.5,322.5C 428.444,324.949 426.111,327.949 424.5,331.5C 421.444,333.949 419.111,336.949 417.5,340.5C 405.405,354.928 394.072,369.928 383.5,385.5C 382.094,385.973 381.427,386.973 381.5,388.5C 379.938,388.733 378.605,389.4 377.5,390.5C 401.129,358.215 425.463,326.549 450.5,295.5 Z"/></g>
<g><path style="opacity:0.443" fill="#86abff" d="M 424.5,331.5 C 422.889,335.051 420.556,338.051 417.5,340.5C 419.111,336.949 421.444,333.949 424.5,331.5 Z"/></g>
<g><path style="opacity:0.043" fill="#c4d6ff" d="M 426.5,331.5 C 426.833,331.5 427.167,331.5 427.5,331.5C 427.5,331.833 427.5,332.167 427.5,332.5C 423.789,339.263 419.122,345.263 413.5,350.5C 412.167,351.5 410.833,352.5 409.5,353.5C 410.787,350.547 412.787,348.214 415.5,346.5C 419.521,341.804 423.188,336.804 426.5,331.5 Z"/></g>
<g><path style="opacity:0.2" fill="#a9c3ff" d="M 426.5,330.5 C 426.5,330.833 426.5,331.167 426.5,331.5C 423.188,336.804 419.521,341.804 415.5,346.5C 415.704,344.315 416.37,342.315 417.5,340.5C 420.556,338.051 422.889,335.051 424.5,331.5C 425.167,331.167 425.833,330.833 426.5,330.5 Z"/></g>
<g><path style="opacity:0.063" fill="#b0faee" d="M 12.5,164.5 C 10.9539,166.882 10.2872,169.549 10.5,172.5C 9.66175,172.842 9.32842,173.508 9.5,174.5C 8.88258,174.611 8.38258,174.944 8,175.5C 7.33333,276.5 7.33333,377.5 8,478.5C 7.89276,481.592 9.05943,483.925 11.5,485.5C 14.4715,488.808 17.4715,492.141 20.5,495.5C 14.9023,491.909 9.56898,487.909 4.5,483.5C 5.64828,383.845 5.81495,284.178 5,184.5C 1.68147,181.731 0.848141,178.397 2.5,174.5C 5.83333,171.167 9.16667,167.833 12.5,164.5 Z"/></g>
<g><path style="opacity:0.043" fill="#dde7ff" d="M 413.5,350.5 C 411.984,353.533 409.984,356.2 407.5,358.5C 408.167,356.833 408.833,355.167 409.5,353.5C 410.833,352.5 412.167,351.5 413.5,350.5 Z"/></g>
<g><path style="opacity:0.388" fill="#93b4ff" d="M 417.5,340.5 C 416.37,342.315 415.704,344.315 415.5,346.5C 412.787,348.214 410.787,350.547 409.5,353.5C 401.441,362.619 394.108,372.286 387.5,382.5C 386.167,383.5 384.833,384.5 383.5,385.5C 394.072,369.928 405.405,354.928 417.5,340.5 Z"/></g>
<g><path style="opacity:0.004" fill="#eef3ff" d="M 407.5,358.5 C 406.97,360.924 406.136,363.257 405,365.5C 402.302,369.025 399.469,372.358 396.5,375.5C 397.167,373.833 397.833,372.167 398.5,370.5C 400.702,365.956 403.702,361.956 407.5,358.5 Z"/></g>
<g><path style="opacity:0.141" fill="#c3d5ff" d="M 409.5,353.5 C 408.833,355.167 408.167,356.833 407.5,358.5C 403.702,361.956 400.702,365.956 398.5,370.5C 394.833,374.5 391.167,378.5 387.5,382.5C 394.108,372.286 401.441,362.619 409.5,353.5 Z"/></g>
<g><path style="opacity:0.18" fill="#b1c8ff" d="M 387.5,382.5 C 384.589,387.746 380.922,392.413 376.5,396.5C 377.655,393.525 379.322,390.858 381.5,388.5C 381.427,386.973 382.094,385.973 383.5,385.5C 384.833,384.5 386.167,383.5 387.5,382.5 Z"/></g>
<g><path style="opacity:0.02" fill="#d5e1ff" d="M 398.5,370.5 C 397.833,372.167 397.167,373.833 396.5,375.5C 390.243,383.601 383.743,391.601 377,399.5C 376.667,400.833 376.333,402.167 376,403.5C 372.324,407.009 368.824,410.676 365.5,414.5C 365.167,414.5 364.833,414.5 364.5,414.5C 367.144,411.006 369.644,407.34 372,403.5C 373.011,402.663 374.178,402.33 375.5,402.5C 375.517,400.435 375.85,398.435 376.5,396.5C 380.922,392.413 384.589,387.746 387.5,382.5C 391.167,378.5 394.833,374.5 398.5,370.5 Z"/></g>
<g><path style="opacity:0.478" fill="#89adff" d="M 381.5,388.5 C 379.322,390.858 377.655,393.525 376.5,396.5C 374.5,398.5 372.5,400.5 370.5,402.5C 372.833,398.5 375.167,394.5 377.5,390.5C 378.605,389.4 379.938,388.733 381.5,388.5 Z"/></g>
<g><path style="opacity:0.749" fill="#578bff" d="M 377.5,390.5 C 375.167,394.5 372.833,398.5 370.5,402.5C 369.5,402.833 368.833,403.5 368.5,404.5C 368.167,404.5 367.833,404.5 367.5,404.5C 369.677,398.993 373.01,394.326 377.5,390.5 Z"/></g>
<g><path style="opacity:1" fill="#3af0ce" d="M 124.5,422.5 C 121.516,418.521 117.85,415.188 113.5,412.5C 110.968,409.328 107.635,407.328 103.5,406.5C 101.621,405.659 99.6208,405.325 97.5,405.5C 88.6338,403.716 80.6338,405.716 73.5,411.5C 70.5691,413.091 67.9024,415.091 65.5,417.5C 67.9325,413.232 71.2658,409.732 75.5,407C 79.079,406.208 82.4123,404.875 85.5,403C 91.5,402.333 97.5,402.333 103.5,403C 109.345,405.511 114.678,408.844 119.5,413C 121.887,415.86 123.553,419.027 124.5,422.5 Z"/></g>
<g><path style="opacity:1" fill="#d6fcf7" d="M 97.5,405.5 C 99.6208,405.325 101.621,405.659 103.5,406.5C 103.281,407.675 103.614,408.675 104.5,409.5C 106.598,409.957 108.264,410.957 109.5,412.5C 105.643,410.904 101.643,409.904 97.5,409.5C 97.5,412.167 97.5,414.833 97.5,417.5C 94.8333,417.5 92.1667,417.5 89.5,417.5C 90.9817,414.384 90.815,411.384 89,408.5C 78.4899,410.516 70.6565,416.183 65.5,425.5C 65.5,424.833 65.5,424.167 65.5,423.5C 65.5569,422.391 65.8902,421.391 66.5,420.5C 72.5501,413.14 80.2167,408.306 89.5,406C 92.146,405.503 94.8127,405.336 97.5,405.5 Z"/></g>
<g><path style="opacity:1" fill="#a7faed" d="M 97.5,405.5 C 94.8127,405.336 92.146,405.503 89.5,406C 80.2167,408.306 72.5501,413.14 66.5,420.5C 68.4273,417.233 70.7606,414.233 73.5,411.5C 80.6338,405.716 88.6338,403.716 97.5,405.5 Z"/></g>
<g><path style="opacity:0.994" fill="#4195fe" d="M 353.5,404.5 C 354.962,405.458 356.295,406.624 357.5,408C 359.5,408.667 361.5,408.667 363.5,408C 364.056,407.617 364.389,407.117 364.5,406.5C 365.167,406.5 365.5,406.167 365.5,405.5C 366.167,405.167 366.833,404.833 367.5,404.5C 367.833,404.5 368.167,404.5 368.5,404.5C 366.5,407.167 364.167,409.5 361.5,411.5C 359.784,411.371 358.117,411.038 356.5,410.5C 354.683,408.988 353.683,406.988 353.5,404.5 Z"/></g>
<g><path style="opacity:0.369" fill="#96b8ff" d="M 370.5,402.5 C 368.971,406.368 366.637,409.701 363.5,412.5C 362.833,412.5 362.167,412.5 361.5,412.5C 361.5,412.167 361.5,411.833 361.5,411.5C 364.167,409.5 366.5,407.167 368.5,404.5C 368.833,403.5 369.5,402.833 370.5,402.5 Z"/></g>
<g><path style="opacity:0.098" fill="#bed2ff" d="M 376.5,396.5 C 375.85,398.435 375.517,400.435 375.5,402.5C 374.178,402.33 373.011,402.663 372,403.5C 369.644,407.34 367.144,411.006 364.5,414.5C 363.167,415.167 362.167,416.167 361.5,417.5C 360.833,417.5 360.5,417.167 360.5,416.5C 361.5,415.167 362.5,413.833 363.5,412.5C 366.637,409.701 368.971,406.368 370.5,402.5C 372.5,400.5 374.5,398.5 376.5,396.5 Z"/></g>
<g><path style="opacity:0.991" fill="#25acef" d="M 350.5,181.5 C 350.833,181.5 351.167,181.5 351.5,181.5C 351.333,256.501 351.5,331.501 352,406.5C 352.748,408.751 354.248,410.084 356.5,410.5C 358.117,411.038 359.784,411.371 361.5,411.5C 361.5,411.833 361.5,412.167 361.5,412.5C 361.158,413.338 360.492,413.672 359.5,413.5C 356.385,413.606 353.719,412.606 351.5,410.5C 350.506,334.208 350.173,257.874 350.5,181.5 Z"/></g>
<g><path style="opacity:1" fill="#e5fdfa" d="M 89.5,417.5 C 87.847,417.66 86.5137,418.326 85.5,419.5C 82.1216,418.891 80.1216,420.224 79.5,423.5C 78.1667,424.167 77.1667,425.167 76.5,426.5C 73.3481,427.779 71.3481,430.112 70.5,433.5C 68.8333,433.5 67.1667,433.5 65.5,433.5C 65.5,430.833 65.5,428.167 65.5,425.5C 70.6565,416.183 78.4899,410.516 89,408.5C 90.815,411.384 90.9817,414.384 89.5,417.5 Z"/></g>
<g><path style="opacity:1" fill="#c1fcf2" d="M 103.5,406.5 C 107.635,407.328 110.968,409.328 113.5,412.5C 115.58,414.573 117.246,416.907 118.5,419.5C 115.19,417.518 112.19,415.185 109.5,412.5C 108.264,410.957 106.598,409.957 104.5,409.5C 103.614,408.675 103.281,407.675 103.5,406.5 Z"/></g>
<g><path style="opacity:0.997" fill="#31c3fc" d="M 351.5,410.5 C 353.719,412.606 356.385,413.606 359.5,413.5C 359.5,414.5 359.5,415.5 359.5,416.5C 359.167,416.5 358.833,416.5 358.5,416.5C 355.547,416.85 353.213,415.85 351.5,413.5C 351.5,413.167 351.5,412.833 351.5,412.5C 351.5,411.833 351.5,411.167 351.5,410.5 Z"/></g>
<g><path style="opacity:1" fill="#89f7e6" d="M 73.5,411.5 C 70.7606,414.233 68.4273,417.233 66.5,420.5C 65.8902,421.391 65.5569,422.391 65.5,423.5C 63.8595,424.147 62.5261,425.147 61.5,426.5C 62.3337,423.316 63.6671,420.316 65.5,417.5C 67.9024,415.091 70.5691,413.091 73.5,411.5 Z"/></g>
<g><path style="opacity:1" fill="#f0fdfc" d="M 77.5,414.5 C 79.1667,414.5 80.8333,414.5 82.5,414.5C 82.6495,415.552 82.4828,416.552 82,417.5C 79.7816,419.092 78.115,421.092 77,423.5C 74.4572,424.207 72.2905,425.54 70.5,427.5C 69.3691,425.926 69.2025,424.259 70,422.5C 72.0282,419.308 74.5282,416.641 77.5,414.5 Z"/></g>
<g><path style="opacity:0.639" fill="#83c2ff" d="M 361.5,412.5 C 362.167,412.5 362.833,412.5 363.5,412.5C 362.5,413.833 361.5,415.167 360.5,416.5C 360.167,416.5 359.833,416.5 359.5,416.5C 359.5,415.5 359.5,414.5 359.5,413.5C 360.492,413.672 361.158,413.338 361.5,412.5 Z"/></g>
<g><path style="opacity:0.024" fill="#dcedff" d="M 364.5,414.5 C 364.833,414.5 365.167,414.5 365.5,414.5C 363.518,417.81 361.185,420.81 358.5,423.5C 358.615,421.053 359.615,419.053 361.5,417.5C 362.167,416.167 363.167,415.167 364.5,414.5 Z"/></g>
<g><path style="opacity:1" fill="#e7fdfb" d="M 109.5,412.5 C 112.19,415.185 115.19,417.518 118.5,419.5C 120.648,424.278 121.981,429.278 122.5,434.5C 120.5,434.5 118.5,434.5 116.5,434.5C 114.947,429.424 111.947,425.257 107.5,422C 106.552,421.517 105.552,421.351 104.5,421.5C 103.089,419.461 101.089,418.461 98.5,418.5C 98.5,417.833 98.1667,417.5 97.5,417.5C 97.5,414.833 97.5,412.167 97.5,409.5C 101.643,409.904 105.643,410.904 109.5,412.5 Z"/></g>
<g><path style="opacity:1" fill="#b4f9ed" d="M 89.5,417.5 C 92.1667,417.5 94.8333,417.5 97.5,417.5C 98.1667,417.5 98.5,417.833 98.5,418.5C 94.1186,418.372 89.7853,418.705 85.5,419.5C 86.5137,418.326 87.847,417.66 89.5,417.5 Z"/></g>
<g><path style="opacity:0.953" fill="#34d7fa" d="M 351.5,413.5 C 353.213,415.85 355.547,416.85 358.5,416.5C 358.672,417.492 358.338,418.158 357.5,418.5C 355.833,419.833 354.167,419.833 352.5,418.5C 351.962,416.883 351.629,415.216 351.5,413.5 Z"/></g>
<g><path style="opacity:1" fill="#5cf3d7" d="M 98.5,418.5 C 99.1667,419.167 99.8333,419.833 100.5,420.5C 95.1053,420.267 89.772,420.6 84.5,421.5C 84.8333,420.833 85.1667,420.167 85.5,419.5C 89.7853,418.705 94.1186,418.372 98.5,418.5 Z"/></g>
<g><path style="opacity:1" fill="#acfaed" d="M 98.5,418.5 C 101.089,418.461 103.089,419.461 104.5,421.5C 103.167,421.167 101.833,420.833 100.5,420.5C 99.8333,419.833 99.1667,419.167 98.5,418.5 Z"/></g>
<g><path style="opacity:1" fill="#b8faf0" d="M 85.5,419.5 C 85.1667,420.167 84.8333,420.833 84.5,421.5C 82.7162,421.893 81.0495,422.559 79.5,423.5C 80.1216,420.224 82.1216,418.891 85.5,419.5 Z"/></g>
<g><path style="opacity:1" fill="#00e9b8" d="M 103.5,424.5 C 103.833,424.5 104.167,424.5 104.5,424.5C 105.878,427.878 108.211,430.211 111.5,431.5C 111.666,435.846 111.499,440.179 111,444.5C 107.961,449.355 104.461,453.688 100.5,457.5C 95.7863,457.827 91.1196,457.493 86.5,456.5C 83,452.655 79.3333,448.988 75.5,445.5C 74.6618,445.158 74.3284,444.492 74.5,443.5C 74.3359,440.813 74.5026,438.146 75,435.5C 81.1163,422.853 90.6163,419.186 103.5,424.5 Z"/></g>
<g><path style="opacity:1" fill="#38f0cd" d="M 65.5,417.5 C 63.6671,420.316 62.3337,423.316 61.5,426.5C 60.8333,427.167 60.1667,427.833 59.5,428.5C 59.1846,423.457 61.1846,419.79 65.5,417.5 Z"/></g>
<g><path style="opacity:1" fill="#63f4db" d="M 100.5,420.5 C 101.833,420.833 103.167,421.167 104.5,421.5C 106.167,423.833 108.167,425.833 110.5,427.5C 110.5,428.167 110.5,428.833 110.5,429.5C 108.5,427.833 106.5,426.167 104.5,424.5C 104.167,424.5 103.833,424.5 103.5,424.5C 102.5,423.167 101.5,421.833 100.5,420.5 Z"/></g>
<g><path style="opacity:1" fill="#39f0ce" d="M 124.5,422.5 C 126.969,423.607 127.969,425.607 127.5,428.5C 125.992,426.819 124.992,424.819 124.5,422.5 Z"/></g>
<g><path style="opacity:0.655" fill="#61e8fa" d="M 352.5,418.5 C 354.167,419.833 355.833,419.833 357.5,418.5C 357.037,421.482 356.704,424.482 356.5,427.5C 355.609,426.89 354.609,426.557 353.5,426.5C 353.599,423.763 353.265,421.096 352.5,418.5 Z"/></g>
<g><path style="opacity:0.18" fill="#a8e9fe" d="M 358.5,416.5 C 358.833,416.5 359.167,416.5 359.5,416.5C 359.833,416.5 360.167,416.5 360.5,416.5C 360.5,417.167 360.833,417.5 361.5,417.5C 359.615,419.053 358.615,421.053 358.5,423.5C 357.566,424.568 357.232,425.901 357.5,427.5C 357.167,427.5 356.833,427.5 356.5,427.5C 356.704,424.482 357.037,421.482 357.5,418.5C 358.338,418.158 358.672,417.492 358.5,416.5 Z"/></g>
<g><path style="opacity:1" fill="#8bf8e7" d="M 84.5,421.5 C 80.8949,423.472 77.8949,426.139 75.5,429.5C 75.5569,428.391 75.8902,427.391 76.5,426.5C 77.1667,425.167 78.1667,424.167 79.5,423.5C 81.0495,422.559 82.7162,421.893 84.5,421.5 Z"/></g>
<g><path style="opacity:1" fill="#8df8e7" d="M 113.5,412.5 C 117.85,415.188 121.516,418.521 124.5,422.5C 124.992,424.819 125.992,426.819 127.5,428.5C 128.539,434.797 128.706,441.13 128,447.5C 127.626,449.491 126.793,451.158 125.5,452.5C 127.268,446.283 127.768,439.95 127,433.5C 125.914,429.654 124.081,426.32 121.5,423.5C 121.262,421.596 120.262,420.262 118.5,419.5C 117.246,416.907 115.58,414.573 113.5,412.5 Z"/></g>
<g><path style="opacity:0.698" fill="#3ce8e9" d="M 350.5,412.5 C 350.833,412.5 351.167,412.5 351.5,412.5C 351.5,412.833 351.5,413.167 351.5,413.5C 351.629,415.216 351.962,416.883 352.5,418.5C 353.265,421.096 353.599,423.763 353.5,426.5C 353.5,428.167 353.5,429.833 353.5,431.5C 352.833,432.167 352.167,432.833 351.5,433.5C 351.786,427.741 351.452,422.075 350.5,416.5C 350.5,415.167 350.5,413.833 350.5,412.5 Z"/></g>
<g><path style="opacity:1" fill="#22eec8" d="M 100.5,420.5 C 101.5,421.833 102.5,423.167 103.5,424.5C 90.6163,419.186 81.1163,422.853 75,435.5C 74.5026,438.146 74.3359,440.813 74.5,443.5C 73.5269,441.052 73.1936,438.385 73.5,435.5C 74.1667,433.5 74.8333,431.5 75.5,429.5C 77.8949,426.139 80.8949,423.472 84.5,421.5C 89.772,420.6 95.1053,420.267 100.5,420.5 Z"/></g>
<g><path style="opacity:1" fill="#d2fcf7" d="M 118.5,419.5 C 120.262,420.262 121.262,421.596 121.5,423.5C 122.987,427.145 124.487,430.812 126,434.5C 126.791,438.926 126.457,443.259 125,447.5C 123.334,452.166 121.167,456.499 118.5,460.5C 117.833,460.5 117.5,460.833 117.5,461.5C 112.161,465.174 106.828,468.841 101.5,472.5C 100.432,473.434 99.099,473.768 97.5,473.5C 93.8183,473.665 90.1516,473.499 86.5,473C 84.5692,472.098 82.9025,470.931 81.5,469.5C 80.8333,468.833 80.1667,468.167 79.5,467.5C 82.4552,468.159 85.4552,468.492 88.5,468.5C 89.0602,463.274 86.7269,460.274 81.5,459.5C 77.1053,457.438 74.1053,454.104 72.5,449.5C 73.391,450.11 74.391,450.443 75.5,450.5C 75.7124,453.712 77.3791,455.712 80.5,456.5C 81.6049,457.6 82.9382,458.267 84.5,458.5C 89.0817,461.862 94.0817,462.362 99.5,460C 101.879,459.284 103.879,458.117 105.5,456.5C 107.5,455.167 109.167,453.5 110.5,451.5C 112.822,450.198 114.155,448.198 114.5,445.5C 114.5,444.5 114.5,443.5 114.5,442.5C 116.62,436.627 115.286,431.627 110.5,427.5C 108.167,425.833 106.167,423.833 104.5,421.5C 105.552,421.351 106.552,421.517 107.5,422C 111.947,425.257 114.947,429.424 116.5,434.5C 118.5,434.5 120.5,434.5 122.5,434.5C 121.981,429.278 120.648,424.278 118.5,419.5 Z"/></g>
<g><path style="opacity:1" fill="#cffcf6" d="M 65.5,423.5 C 65.5,424.167 65.5,424.833 65.5,425.5C 65.5,428.167 65.5,430.833 65.5,433.5C 67.1667,433.5 68.8333,433.5 70.5,433.5C 70.5,435.833 70.5,438.167 70.5,440.5C 67.4816,440.335 64.4816,440.502 61.5,441C 62.8664,443.997 63.533,447.164 63.5,450.5C 62.8333,449.833 62.1667,449.167 61.5,448.5C 60.8333,447.833 60.1667,447.167 59.5,446.5C 59.0647,439.67 59.7314,433.004 61.5,426.5C 62.5261,425.147 63.8595,424.147 65.5,423.5 Z"/></g>
<g><path style="opacity:1" fill="#bbfbf1" d="M 121.5,423.5 C 124.081,426.32 125.914,429.654 127,433.5C 127.768,439.95 127.268,446.283 125.5,452.5C 123.638,455.541 121.305,458.208 118.5,460.5C 121.167,456.499 123.334,452.166 125,447.5C 126.457,443.259 126.791,438.926 126,434.5C 124.487,430.812 122.987,427.145 121.5,423.5 Z"/></g>
<g><path style="opacity:1" fill="#9dfaed" d="M 110.5,427.5 C 115.286,431.627 116.62,436.627 114.5,442.5C 115.141,437.431 113.808,433.097 110.5,429.5C 110.5,428.833 110.5,428.167 110.5,427.5 Z"/></g>
<g><path style="opacity:0.522" fill="#29eeda" d="M 349.5,416.5 C 349.833,416.5 350.167,416.5 350.5,416.5C 351.452,422.075 351.786,427.741 351.5,433.5C 351.5,434.5 351.5,435.5 351.5,436.5C 351.828,448.012 351.495,459.346 350.5,470.5C 350.471,452.493 350.138,434.493 349.5,416.5 Z"/></g>
<g><path style="opacity:1" fill="#86f8e8" d="M 75.5,429.5 C 74.8333,431.5 74.1667,433.5 73.5,435.5C 72.5269,437.948 72.1936,440.615 72.5,443.5C 71.122,439.188 71.4554,434.854 73.5,430.5C 73.9569,429.702 74.6236,429.369 75.5,429.5 Z"/></g>
<g><path style="opacity:1" fill="#bffbf3" d="M 76.5,426.5 C 75.8902,427.391 75.5569,428.391 75.5,429.5C 74.6236,429.369 73.9569,429.702 73.5,430.5C 71.4554,434.854 71.122,439.188 72.5,443.5C 72.703,446.233 73.703,448.566 75.5,450.5C 74.391,450.443 73.391,450.11 72.5,449.5C 71.4222,446.598 70.7556,443.598 70.5,440.5C 70.5,438.167 70.5,435.833 70.5,433.5C 71.3481,430.112 73.3481,427.779 76.5,426.5 Z"/></g>
<g><path style="opacity:0.655" fill="#25f0d0" d="M 348.5,415.5 C 348.833,415.5 349.167,415.5 349.5,415.5C 349.5,415.833 349.5,416.167 349.5,416.5C 350.138,434.493 350.471,452.493 350.5,470.5C 349.957,478.128 347.624,485.128 343.5,491.5C 340.044,494.439 336.044,496.439 331.5,497.5C 333.733,495.652 336.066,493.985 338.5,492.5C 343.927,488.094 347.427,482.427 349,475.5C 349.357,455.498 349.19,435.498 348.5,415.5 Z"/></g>
<g><path style="opacity:0.008" fill="#96f7f4" d="M 353.5,426.5 C 354.609,426.557 355.609,426.89 356.5,427.5C 356.5,431.5 356.5,435.5 356.5,439.5C 356.098,436.523 355.098,433.857 353.5,431.5C 353.5,429.833 353.5,428.167 353.5,426.5 Z"/></g>
<g><path style="opacity:0.341" fill="#71f8e7" d="M 351.5,436.5 C 352.496,449.99 352.829,463.656 352.5,477.5C 351.01,483.149 348.01,487.816 343.5,491.5C 347.624,485.128 349.957,478.128 350.5,470.5C 351.495,459.346 351.828,448.012 351.5,436.5 Z"/></g>
<g><path style="opacity:1" fill="#79f6e0" d="M 61.5,426.5 C 59.7314,433.004 59.0647,439.67 59.5,446.5C 57.9177,443.124 57.2511,439.458 57.5,435.5C 57.4095,432.848 58.0762,430.515 59.5,428.5C 60.1667,427.833 60.8333,427.167 61.5,426.5 Z"/></g>
<g><path style="opacity:0.098" fill="#83f9ec" d="M 353.5,431.5 C 355.098,433.857 356.098,436.523 356.5,439.5C 358.281,451.985 357.614,464.318 354.5,476.5C 353.833,476.833 353.167,477.167 352.5,477.5C 352.829,463.656 352.496,449.99 351.5,436.5C 351.5,435.5 351.5,434.5 351.5,433.5C 352.167,432.833 352.833,432.167 353.5,431.5 Z"/></g>
<g><path style="opacity:0.004" fill="#d7fdf8" d="M 356.5,427.5 C 356.833,427.5 357.167,427.5 357.5,427.5C 358.381,440.824 358.547,454.158 358,467.5C 357.013,474.325 354.846,480.659 351.5,486.5C 351.167,486.5 350.833,486.5 350.5,486.5C 352.293,483.366 353.626,480.033 354.5,476.5C 357.614,464.318 358.281,451.985 356.5,439.5C 356.5,435.5 356.5,431.5 356.5,427.5 Z"/></g>
<g><path style="opacity:1" fill="#2cedc7" d="M 127.5,428.5 C 132.252,435.688 132.752,443.355 129,451.5C 124.99,458.521 119.823,464.688 113.5,470C 112.552,470.483 111.552,470.649 110.5,470.5C 116.971,465.699 121.971,459.699 125.5,452.5C 126.793,451.158 127.626,449.491 128,447.5C 128.706,441.13 128.539,434.797 127.5,428.5 Z"/></g>
<g><path style="opacity:1" fill="#5cf4dc" d="M 73.5,435.5 C 73.1936,438.385 73.5269,441.052 74.5,443.5C 74.3284,444.492 74.6618,445.158 75.5,445.5C 76.4289,448.412 77.7622,451.079 79.5,453.5C 78.1667,452.5 76.8333,451.5 75.5,450.5C 73.703,448.566 72.703,446.233 72.5,443.5C 72.1936,440.615 72.5269,437.948 73.5,435.5 Z"/></g>
<g><path style="opacity:1" fill="#eefefc" d="M 72.5,449.5 C 74.1053,454.104 77.1053,457.438 81.5,459.5C 84.0803,461.822 83.5803,463.488 80,464.5C 72.5811,462.243 68.0811,457.243 66.5,449.5C 68.3955,447.001 70.3955,447.001 72.5,449.5 Z"/></g>
<g><path style="opacity:1" fill="#a1f9ec" d="M 114.5,445.5 C 114.155,448.198 112.822,450.198 110.5,451.5C 110.87,448.733 112.204,446.733 114.5,445.5 Z"/></g>
<g><path style="opacity:1" fill="#bffcf4" d="M 61.5,448.5 C 62.1667,449.167 62.8333,449.833 63.5,450.5C 66.7838,458.046 72.1171,463.712 79.5,467.5C 80.1667,468.167 80.8333,468.833 81.5,469.5C 79.7839,469.371 78.1172,469.038 76.5,468.5C 75.391,468.443 74.391,468.11 73.5,467.5C 71.5,465.167 69.5,462.833 67.5,460.5C 64.9672,456.768 62.9672,452.768 61.5,448.5 Z"/></g>
<g><path style="opacity:1" fill="#b5faf1" d="M 75.5,450.5 C 76.8333,451.5 78.1667,452.5 79.5,453.5C 79.5,453.833 79.5,454.167 79.5,454.5C 79.8333,455.167 80.1667,455.833 80.5,456.5C 77.3791,455.712 75.7124,453.712 75.5,450.5 Z"/></g>
<g><path style="opacity:1" fill="#96f9e9" d="M 110.5,451.5 C 109.167,453.5 107.5,455.167 105.5,456.5C 106.167,453.833 107.833,452.167 110.5,451.5 Z"/></g>
<g><path style="opacity:1" fill="#41f1d1" d="M 104.5,424.5 C 106.5,426.167 108.5,427.833 110.5,429.5C 113.808,433.097 115.141,437.431 114.5,442.5C 114.5,443.5 114.5,444.5 114.5,445.5C 112.204,446.733 110.87,448.733 110.5,451.5C 107.833,452.167 106.167,453.833 105.5,456.5C 103.883,457.038 102.216,457.371 100.5,457.5C 104.461,453.688 107.961,449.355 111,444.5C 111.499,440.179 111.666,435.846 111.5,431.5C 108.211,430.211 105.878,427.878 104.5,424.5 Z"/></g>
<g><path style="opacity:1" fill="#87f7e5" d="M 79.5,454.5 C 81.7488,455.08 83.4154,456.413 84.5,458.5C 82.9382,458.267 81.6049,457.6 80.5,456.5C 80.1667,455.833 79.8333,455.167 79.5,454.5 Z"/></g>
<g><path style="opacity:1" fill="#9af9eb" d="M 59.5,446.5 C 60.1667,447.167 60.8333,447.833 61.5,448.5C 62.9672,452.768 64.9672,456.768 67.5,460.5C 66.5,459.833 65.5,459.167 64.5,458.5C 61.6782,455.049 60.0116,451.049 59.5,446.5 Z"/></g>
<g><path style="opacity:1" fill="#34efca" d="M 75.5,445.5 C 79.3333,448.988 83,452.655 86.5,456.5C 91.1196,457.493 95.7863,457.827 100.5,457.5C 98.3211,458.926 95.8211,459.592 93,459.5C 90.1523,459.202 87.3189,458.869 84.5,458.5C 83.4154,456.413 81.7488,455.08 79.5,454.5C 79.5,454.167 79.5,453.833 79.5,453.5C 77.7622,451.079 76.4289,448.412 75.5,445.5 Z"/></g>
<g><path style="opacity:1" fill="#6af6e1" d="M 64.5,458.5 C 65.5,459.167 66.5,459.833 67.5,460.5C 69.5,462.833 71.5,465.167 73.5,467.5C 69.5,465.5 66.5,462.5 64.5,458.5 Z"/></g>
<g><path style="opacity:1" fill="#89f7e5" d="M 105.5,456.5 C 103.879,458.117 101.879,459.284 99.5,460C 94.0817,462.362 89.0817,461.862 84.5,458.5C 87.3189,458.869 90.1523,459.202 93,459.5C 95.8211,459.592 98.3211,458.926 100.5,457.5C 102.216,457.371 103.883,457.038 105.5,456.5 Z"/></g>
<g><path style="opacity:1" fill="#3bf0cf" d="M 57.5,435.5 C 57.2511,439.458 57.9177,443.124 59.5,446.5C 60.0116,451.049 61.6782,455.049 64.5,458.5C 66.5,462.5 69.5,465.5 73.5,467.5C 74.391,468.11 75.391,468.443 76.5,468.5C 79.2661,470.864 82.2661,472.864 85.5,474.5C 85.5,474.833 85.5,475.167 85.5,475.5C 70.3659,471.029 61.0325,461.029 57.5,445.5C 56.2952,442.012 56.2952,438.678 57.5,435.5 Z"/></g>
<g><path style="opacity:1" fill="#e0fdf9" d="M 70.5,440.5 C 70.7556,443.598 71.4222,446.598 72.5,449.5C 70.3955,447.001 68.3955,447.001 66.5,449.5C 68.0811,457.243 72.5811,462.243 80,464.5C 83.5803,463.488 84.0803,461.822 81.5,459.5C 86.7269,460.274 89.0602,463.274 88.5,468.5C 85.4552,468.492 82.4552,468.159 79.5,467.5C 72.1171,463.712 66.7838,458.046 63.5,450.5C 63.533,447.164 62.8664,443.997 61.5,441C 64.4816,440.502 67.4816,440.335 70.5,440.5 Z"/></g>
<g><path style="opacity:1" fill="#e9fdfb" d="M 116.5,443.5 C 118.857,443.337 121.19,443.503 123.5,444C 122.04,452.14 118.04,458.807 111.5,464C 109.305,465.373 106.971,465.706 104.5,465C 103.446,463.612 103.28,462.112 104,460.5C 107.333,457.167 110.667,453.833 114,450.5C 115.411,448.35 116.245,446.016 116.5,443.5 Z"/></g>
<g><path style="opacity:1" fill="#7ef7e5" d="M 125.5,452.5 C 121.971,459.699 116.971,465.699 110.5,470.5C 109.167,470.833 107.833,471.167 106.5,471.5C 110.765,468.906 114.431,465.572 117.5,461.5C 117.5,460.833 117.833,460.5 118.5,460.5C 121.305,458.208 123.638,455.541 125.5,452.5 Z"/></g>
<g><path style="opacity:1" fill="#aefbf1" d="M 117.5,461.5 C 114.431,465.572 110.765,468.906 106.5,471.5C 104.883,472.038 103.216,472.371 101.5,472.5C 106.828,468.841 112.161,465.174 117.5,461.5 Z"/></g>
<g><path style="opacity:1" fill="#98f9eb" d="M 76.5,468.5 C 78.1172,469.038 79.7839,469.371 81.5,469.5C 82.9025,470.931 84.5692,472.098 86.5,473C 90.1516,473.499 93.8183,473.665 97.5,473.5C 93.7016,474.483 89.7016,474.817 85.5,474.5C 82.2661,472.864 79.2661,470.864 76.5,468.5 Z"/></g>
<g><path style="opacity:1" fill="#65f4dc" d="M 110.5,470.5 C 108.636,472.014 106.636,473.347 104.5,474.5C 98.2026,475.32 91.8692,475.653 85.5,475.5C 85.5,475.167 85.5,474.833 85.5,474.5C 89.7016,474.817 93.7016,474.483 97.5,473.5C 99.099,473.768 100.432,473.434 101.5,472.5C 103.216,472.371 104.883,472.038 106.5,471.5C 107.833,471.167 109.167,470.833 110.5,470.5 Z"/></g>
<g><path style="opacity:1" fill="#2deec8" d="M 104.5,474.5 C 104.082,475.222 103.416,475.722 102.5,476C 96.6513,476.818 90.9846,476.652 85.5,475.5C 91.8692,475.653 98.2026,475.32 104.5,474.5 Z"/></g>
<g><path style="opacity:0.008" fill="#fcfefd" d="M 5.5,486.5 C 9.93524,489.1 13.6019,492.6 16.5,497C 20.2244,498.459 23.7244,500.293 27,502.5C 28.7659,503.233 30.5992,503.567 32.5,503.5C 133.5,504.167 234.5,504.833 335.5,505.5C 334.5,507.5 333.5,509.5 332.5,511.5C 229.833,511.5 127.167,511.5 24.5,511.5C 23.6569,508.484 22.1569,505.817 20,503.5C 16.3333,500.5 12.6667,497.5 9,494.5C 7.0073,492.182 5.84063,489.516 5.5,486.5 Z"/></g>
<g><path style="opacity:0.302" fill="#aef9ed" d="M 354.5,476.5 C 353.626,480.033 352.293,483.366 350.5,486.5C 345.85,492.981 339.85,497.815 332.5,501C 231.666,501.833 130.999,501.666 30.5,500.5C 130.501,500.667 230.501,500.5 330.5,500C 336.083,499.029 340.416,496.196 343.5,491.5C 348.01,487.816 351.01,483.149 352.5,477.5C 353.167,477.167 353.833,476.833 354.5,476.5 Z"/></g>
<g><path style="opacity:0.073" fill="#e1fdf9" d="M 4.5,483.5 C 9.56898,487.909 14.9023,491.909 20.5,495.5C 22.9183,498.71 26.2517,500.376 30.5,500.5C 130.999,501.666 231.666,501.833 332.5,501C 339.85,497.815 345.85,492.981 350.5,486.5C 350.833,486.5 351.167,486.5 351.5,486.5C 350.833,488.5 350.167,490.5 349.5,492.5C 345.817,496.18 341.817,499.514 337.5,502.5C 235.848,503.487 134.182,503.82 32.5,503.5C 30.5992,503.567 28.7659,503.233 27,502.5C 23.7244,500.293 20.2244,498.459 16.5,497C 13.6019,492.6 9.93524,489.1 5.5,486.5C 4.59603,485.791 4.26269,484.791 4.5,483.5 Z"/></g>
<g><path style="opacity:0.486" fill="#7cf5de" d="M 343.5,491.5 C 340.416,496.196 336.083,499.029 330.5,500C 230.501,500.5 130.501,500.667 30.5,500.5C 30.5,500.167 30.5,499.833 30.5,499.5C 128.668,499.833 226.668,499.499 324.5,498.5C 326.903,498.552 329.236,498.219 331.5,497.5C 336.044,496.439 340.044,494.439 343.5,491.5 Z"/></g>
<g><path style="opacity:0.674" fill="#49efcd" d="M 22.5,495.5 C 26.3735,496.761 30.3735,497.428 34.5,497.5C 130.999,498.499 227.665,498.833 324.5,498.5C 226.668,499.499 128.668,499.833 30.5,499.5C 27.7018,498.35 25.0352,497.017 22.5,495.5 Z"/></g>
<g><path style="opacity:0.839" fill="#20ebbf" d="M 338.5,492.5 C 336.066,493.985 333.733,495.652 331.5,497.5C 329.236,498.219 326.903,498.552 324.5,498.5C 227.665,498.833 130.999,498.499 34.5,497.5C 131.167,497.667 227.834,497.5 324.5,497C 329.277,495.775 333.944,494.275 338.5,492.5 Z"/></g>
<g><path style="opacity:0.173" fill="#aafaef" d="M 20.5,495.5 C 21.1667,495.5 21.8333,495.5 22.5,495.5C 25.0352,497.017 27.7018,498.35 30.5,499.5C 30.5,499.833 30.5,500.167 30.5,500.5C 26.2517,500.376 22.9183,498.71 20.5,495.5 Z"/></g>
<g><path style="opacity:0.027" fill="#f4fefd" d="M 337.5,502.5 C 337.068,503.71 336.401,504.71 335.5,505.5C 234.5,504.833 133.5,504.167 32.5,503.5C 134.182,503.82 235.848,503.487 337.5,502.5 Z"/></g>
</svg>
